<svg width="375" height="277" viewBox="0 0 375 277" fill="none" xmlns="http://www.w3.org/2000/svg">
<rect width="375" height="277" fill="white"/>
<path d="M333.475 75.1354L328.69 98.3104L325.61 95.3054L320.37 99.0454L316.365 94.0704L307.385 100.6L299.71 87.7654L291.15 92.7804L287.755 88.1004L276.885 94.2254L273.615 87.2204L281.235 50.3154L322.085 58.7504L333.475 75.1354Z" fill="#EBEBEB"/>
<path d="M322.085 58.75L333.475 75.135L319.305 72.21L322.085 58.75Z" fill="#DBDBDB"/>
<path d="M327.671 102.94L320.656 136.94L265.631 125.58L272.596 91.8555L275.866 98.8555L286.741 92.7305L290.131 97.4105L298.696 92.4005L306.366 105.235L315.351 98.7055L319.351 103.675L324.596 99.9405L327.671 102.94Z" fill="#EBEBEB"/>
<path d="M248.915 98.9552L192.84 102.425L188.385 30.4452L230.025 27.8652L245.31 40.6902L248.915 98.9552Z" fill="#EBEBEB"/>
<path d="M230.025 27.8652L245.31 40.6902L230.87 41.5852L230.025 27.8652Z" fill="#DBDBDB"/>
<path d="M214.5 76.3002L214.28 74.6752C213.715 71.3102 214.635 67.5452 217.56 63.6102C220.2 60.1102 221.63 57.6102 221.47 54.7702C221.29 51.5702 219.165 49.5502 215.21 49.7102C212.949 49.8276 210.778 50.6297 208.985 52.0102L207.26 48.1452C209.26 46.5202 212.76 45.3202 216.085 45.1452C223.3 44.7452 226.81 49.0152 227.085 53.7802C227.325 58.0452 225.115 61.2502 222.305 64.9952C219.725 68.4102 218.88 71.2252 219.245 74.4102L219.4 76.0402L214.5 76.3002ZM213.61 85.1552C213.48 82.8352 214.955 81.1152 217.15 80.9952C219.345 80.8752 220.945 82.4152 221.075 84.7402C221.195 86.9352 219.85 88.7052 217.53 88.8352C215.315 88.9602 213.715 87.3502 213.59 85.1552H213.61Z" fill="#DBDBDB"/>
<path d="M74.24 64.055L68.6 61.5L67.815 63.225C67.6991 63.4715 67.5182 63.6818 67.2918 63.8333C67.0655 63.9848 66.8021 64.0718 66.53 64.085C66.2201 64.0952 65.9111 64.1252 65.605 64.175C65.3363 64.2149 65.0618 64.1811 64.8109 64.0772C64.5599 63.9733 64.3418 63.8032 64.18 63.585L63.075 62.04L58.04 65.65L59.145 67.195C59.2987 67.418 59.3891 67.6784 59.4067 67.9487C59.4244 68.219 59.3685 68.4889 59.245 68.73C59.1024 69.005 58.9739 69.287 58.86 69.575C58.761 69.829 58.5946 70.0511 58.3787 70.2176C58.1629 70.3841 57.9058 70.4887 57.635 70.52L55.75 70.705L56.355 76.87L58.25 76.68C58.5218 76.6583 58.7943 76.7111 59.0383 76.8326C59.2824 76.9542 59.4886 77.14 59.635 77.37C59.715 77.5 59.8 77.625 59.89 77.75C59.98 77.875 60.07 77.995 60.165 78.115C60.3375 78.3249 60.4485 78.5786 60.4856 78.8478C60.5227 79.117 60.4844 79.3912 60.375 79.64L59.585 81.38L65.23 83.94L66.015 82.205C66.132 81.9587 66.3139 81.7489 66.5412 81.5983C66.7685 81.4476 67.0326 81.3618 67.305 81.35C67.6115 81.3374 67.917 81.3073 68.22 81.26C68.4887 81.2201 68.7632 81.2539 69.0141 81.3578C69.2651 81.4617 69.4832 81.6318 69.645 81.85L70.75 83.395L75.79 79.785L74.685 78.24C74.5266 78.019 74.4332 77.7581 74.4156 77.4868C74.3979 77.2155 74.4566 76.9447 74.585 76.705C74.7243 76.4316 74.8494 76.1512 74.96 75.865C75.0562 75.6092 75.2217 75.3852 75.4381 75.2183C75.6545 75.0514 75.9131 74.9481 76.185 74.92L78.08 74.73L77.47 68.565L75.575 68.75C75.3049 68.7737 75.0336 68.7223 74.7909 68.6014C74.5482 68.4805 74.3437 68.2949 74.2 68.065C74.115 67.935 74.03 67.81 73.94 67.685C73.85 67.56 73.76 67.435 73.665 67.32C73.4936 67.1075 73.3835 66.8522 73.3465 66.5817C73.3095 66.3112 73.347 66.0357 73.455 65.785L74.24 64.055ZM71.04 69.76C71.6247 70.5759 71.9543 71.5469 71.9871 72.5502C72.0199 73.5535 71.7545 74.544 71.2243 75.3964C70.6942 76.2488 69.9232 76.9248 69.0088 77.339C68.0944 77.7531 67.0778 77.8869 66.0874 77.7232C65.097 77.5595 64.1774 77.1058 63.4449 76.4195C62.7124 75.7332 62.1999 74.845 61.9721 73.8674C61.7444 72.8897 61.8117 71.8665 62.1656 70.9272C62.5194 69.9878 63.1439 69.1744 63.96 68.59C65.0541 67.8065 66.4146 67.4896 67.7423 67.709C69.07 67.9284 70.2562 68.6662 71.04 69.76Z" fill="#EBEBEB"/>
<path d="M329.19 145.855L325.43 148.025L326.095 149.175C326.194 149.34 326.244 149.531 326.238 149.723C326.231 149.916 326.17 150.102 326.06 150.26C325.945 150.44 325.835 150.625 325.735 150.82C325.653 150.993 325.523 151.138 325.361 151.239C325.199 151.34 325.011 151.393 324.82 151.39H323.5V155.735H324.83C325.021 155.733 325.209 155.786 325.371 155.887C325.533 155.988 325.663 156.133 325.745 156.305C325.845 156.5 325.955 156.685 326.07 156.865C326.18 157.024 326.241 157.21 326.248 157.403C326.254 157.595 326.204 157.785 326.105 157.95L325.44 159.1L329.2 161.27L329.87 160.115C329.967 159.952 330.108 159.818 330.276 159.73C330.445 159.641 330.635 159.602 330.825 159.615H331.465C331.655 159.602 331.845 159.642 332.013 159.731C332.182 159.819 332.323 159.952 332.42 160.115L333.09 161.275L336.845 159.105L336.18 157.95C336.085 157.785 336.039 157.596 336.046 157.405C336.053 157.214 336.113 157.029 336.22 156.87C336.335 156.69 336.445 156.5 336.545 156.31C336.627 156.138 336.757 155.993 336.919 155.892C337.081 155.791 337.269 155.738 337.46 155.74H338.79V151.395H337.45C337.259 151.398 337.071 151.345 336.909 151.244C336.747 151.143 336.617 150.998 336.535 150.825C336.435 150.635 336.325 150.445 336.21 150.265C336.103 150.107 336.043 149.922 336.036 149.731C336.029 149.54 336.075 149.351 336.17 149.185L336.835 148.03L333.08 145.86L332.41 147C332.313 147.164 332.172 147.298 332.004 147.386C331.835 147.474 331.645 147.514 331.455 147.5H331.135H330.815C330.625 147.513 330.434 147.473 330.265 147.385C330.095 147.297 329.954 147.164 329.855 147L329.19 145.855ZM331.135 150.005C331.84 150.004 332.529 150.213 333.115 150.603C333.701 150.994 334.158 151.55 334.428 152.201C334.698 152.852 334.769 153.568 334.632 154.259C334.495 154.95 334.155 155.585 333.657 156.083C333.159 156.581 332.524 156.92 331.833 157.057C331.142 157.195 330.426 157.124 329.775 156.854C329.125 156.583 328.569 156.126 328.178 155.54C327.787 154.954 327.579 154.265 327.58 153.56C327.579 153.093 327.671 152.63 327.849 152.199C328.028 151.767 328.289 151.374 328.619 151.043C328.95 150.713 329.342 150.451 329.773 150.272C330.205 150.093 330.668 150 331.135 150V150.005Z" fill="#EBEBEB"/>
<path d="M85.6512 45.5805L82.2062 48.2205L83.0012 49.2755C83.1198 49.4258 83.1927 49.607 83.2113 49.7976C83.2299 49.9881 83.1934 50.18 83.1062 50.3505C83.0105 50.5451 82.927 50.7455 82.8562 50.9505C82.7945 51.1311 82.6837 51.2908 82.5362 51.4119C82.3887 51.5329 82.2103 51.6103 82.0212 51.6355L80.7012 51.8055L81.2612 56.1105L82.5812 55.9405C82.7733 55.9137 82.9691 55.9417 83.146 56.0213C83.323 56.1009 83.4738 56.2289 83.5812 56.3905C83.7016 56.5644 83.8318 56.7313 83.9712 56.8905C84.1 57.0321 84.1854 57.2078 84.2173 57.3966C84.2492 57.5854 84.2263 57.7793 84.1512 57.9555L83.6512 59.1855L87.6512 60.8505L88.1512 59.6205C88.2256 59.444 88.3479 59.2919 88.5043 59.1815C88.6608 59.071 88.845 59.0066 89.0362 58.9955L89.3562 58.9605L89.6712 58.9105C89.8562 58.8756 90.0473 58.8921 90.2236 58.9582C90.3999 59.0243 90.5547 59.1375 90.6712 59.2855L91.4862 60.3505L94.9312 57.7105L94.1262 56.6555C94.0099 56.5031 93.9385 56.3212 93.9199 56.1304C93.9014 55.9396 93.9364 55.7474 94.0212 55.5755C94.116 55.3821 94.1994 55.1835 94.2712 54.9805C94.3328 54.7999 94.4436 54.6401 94.5911 54.5191C94.7387 54.3981 94.917 54.3206 95.1062 54.2955L96.4262 54.1255L95.8662 49.8205L94.5462 49.9905C94.3545 50.0178 94.159 49.9905 93.9822 49.9118C93.8053 49.8331 93.6542 49.7061 93.5462 49.5455C93.4212 49.3655 93.2912 49.1955 93.1512 49.0455C93.0347 48.9008 92.9593 48.7274 92.9329 48.5435C92.9065 48.3597 92.9301 48.1721 93.0012 48.0005L93.5012 46.7705L89.5012 45.1055L89.0012 46.3355C88.9258 46.5112 88.8032 46.6627 88.647 46.773C88.4908 46.8833 88.307 46.9482 88.1162 46.9605L87.7962 46.9905L87.5012 47.0005C87.3161 47.0353 87.1251 47.0188 86.9488 46.9527C86.7725 46.8866 86.6177 46.7734 86.5012 46.6255L85.6512 45.5805ZM88.1162 49.4455C88.8127 49.3559 89.5201 49.4747 90.1492 49.7867C90.7782 50.0988 91.3008 50.5901 91.651 51.1988C92.0011 51.8075 92.1631 52.5063 92.1166 53.207C92.0701 53.9076 91.8171 54.5788 91.3896 55.1359C90.962 55.693 90.3791 56.1109 89.7143 56.3371C89.0494 56.5632 88.3326 56.5874 87.654 56.4066C86.9755 56.2258 86.3657 55.848 85.9016 55.321C85.4375 54.7941 85.1398 54.1414 85.0462 53.4455C84.9837 52.981 85.0136 52.5088 85.1343 52.056C85.255 51.6032 85.464 51.1787 85.7493 50.807C86.0346 50.4353 86.3906 50.1236 86.7968 49.8899C87.203 49.6563 87.6514 49.5052 88.1162 49.4455Z" fill="#EBEBEB"/>
<path d="M59.9108 158.391C60.0986 153.557 60.0318 148.717 59.7108 143.891C58.9953 133.924 57.4754 124.032 55.1658 114.311C53.8958 108.841 52.3358 103.461 50.7058 98.0855C50.6558 97.9205 50.3958 97.9655 50.4408 98.1355C55.4758 117.086 59.6058 136.636 59.3208 156.336C59.2408 161.836 58.6008 167.261 58.0808 172.741C58.0808 172.886 58.3058 172.946 58.3408 172.796C59.3758 168.091 59.7158 163.181 59.9108 158.391Z" fill="#EBEBEB"/>
<path d="M50.441 98.1201C50.441 98.1201 42.821 117.47 44.526 122C46.231 126.53 49.751 127.5 49.751 127.5C49.751 127.5 45.086 134.16 48.346 140.405C51.606 146.65 58.846 146.355 59.346 153.435C59.331 153.47 59.731 123.865 50.441 98.1201Z" fill="#EBEBEB"/>
<path d="M58.5013 141.245C58.5136 141.213 58.5136 141.177 58.5013 141.145C57.5012 127.934 55.0224 114.878 51.1113 102.22C51.1113 102.185 51.0363 102.195 51.0463 102.22C52.5563 107.887 53.8896 113.577 55.0463 119.29C54.0219 118.319 52.7703 117.621 51.4063 117.26C51.4063 117.26 51.3663 117.29 51.4063 117.3C52.8393 117.825 54.1277 118.682 55.1663 119.8C55.3863 120.925 55.6063 122.045 55.8113 123.17C54.1063 121.265 51.7463 120.32 49.3813 119.42C49.3759 119.422 49.3714 119.426 49.3682 119.431C49.365 119.436 49.3633 119.442 49.3633 119.447C49.3633 119.453 49.365 119.459 49.3682 119.464C49.3714 119.469 49.3759 119.473 49.3813 119.475C51.8463 120.475 54.2963 121.765 55.9663 123.89C56.5463 127.1 57.0563 130.322 57.4963 133.555C56.2652 132.265 54.6864 131.36 52.9513 130.95C52.8963 130.95 52.8663 131.015 52.9213 131.03C54.7037 131.555 56.295 132.587 57.5013 134H57.5313C57.6813 135.133 57.8246 136.272 57.9613 137.415C57.0089 136.609 55.9337 135.961 54.7763 135.495C54.7463 135.495 54.7263 135.53 54.7763 135.54C55.9574 136.052 57.0389 136.768 57.9713 137.655C57.9713 137.655 57.9963 137.655 58.0113 137.655C58.1363 138.74 58.2613 139.825 58.3713 140.91C56.6544 138.834 54.4261 137.242 51.9063 136.29C51.8957 136.29 51.8855 136.294 51.878 136.302C51.8705 136.309 51.8663 136.319 51.8663 136.33C51.8663 136.341 51.8705 136.351 51.878 136.358C51.8855 136.366 51.8957 136.37 51.9063 136.37C54.3945 137.467 56.5801 139.15 58.2763 141.275C58.295 141.298 58.3202 141.315 58.3487 141.324C58.3772 141.333 58.4077 141.333 58.4363 141.325C58.6013 142.99 58.7513 144.655 58.8713 146.325C58.8713 146.35 58.9113 146.35 58.9113 146.325C58.7813 144.648 58.6446 142.955 58.5013 141.245Z" fill="white"/>
<path d="M52.3756 115.355C50.9956 114.496 49.4191 114.004 47.7956 113.925C47.7877 113.925 47.78 113.928 47.7744 113.934C47.7688 113.939 47.7656 113.947 47.7656 113.955C47.7656 113.963 47.7688 113.97 47.7744 113.976C47.78 113.982 47.7877 113.985 47.7956 113.985C49.3653 114.282 50.8885 114.787 52.3256 115.485C52.3856 115.5 52.4306 115.395 52.3756 115.355Z" fill="white"/>
<path d="M53.3 135.84C52.2394 135.231 51.0715 134.832 49.86 134.665C49.82 134.665 49.815 134.72 49.86 134.73C51.043 134.967 52.1873 135.368 53.26 135.92C53.305 135.945 53.345 135.865 53.3 135.84Z" fill="white"/>
<path d="M79.9512 122.336C76.7276 124.564 73.767 127.15 71.1262 130.046C68.4027 133.111 66.3019 136.677 64.9412 140.546C62.0451 148.605 60.4879 157.083 60.3312 165.646C60.2341 170.387 60.6888 175.124 61.6862 179.761C61.6943 179.794 61.715 179.824 61.7441 179.842C61.7732 179.861 61.8084 179.868 61.8425 179.862C61.8765 179.855 61.9068 179.836 61.9271 179.808C61.9473 179.78 61.9559 179.745 61.9512 179.711C60.7101 171.529 60.7573 163.203 62.0912 155.036C63.4012 147.036 65.4562 138.326 70.5462 131.821C73.3162 128.276 76.7712 125.491 80.1862 122.611C80.3662 122.451 80.1362 122.206 79.9512 122.336Z" fill="#EBEBEB"/>
<path d="M61.4512 159.875C63.2861 156.907 65.4424 154.15 67.8812 151.655C71.6962 147.84 74.9062 145.13 75.4062 142.61C75.9062 140.09 71.5862 138.23 71.5862 138.23C71.5862 138.23 76.8612 139.18 78.3062 136.965C79.7512 134.75 80.4462 121.92 80.4462 121.92C80.4462 121.92 70.8462 128.775 66.3712 138.385C61.8962 147.995 61.4512 159.875 61.4512 159.875Z" fill="#EBEBEB"/>
<path d="M77.0015 133.955C76.3694 133.861 75.7286 133.839 75.0915 133.89C75.0165 133.89 75.0215 134.02 75.0915 134.025C75.7215 134.025 76.3565 133.995 76.9865 134.025C76.9937 134.023 77.0002 134.019 77.0054 134.014C77.0105 134.009 77.0141 134.002 77.0157 133.995C77.0172 133.987 77.0167 133.98 77.0142 133.973C77.0117 133.966 77.0073 133.96 77.0015 133.955Z" fill="white"/>
<path d="M70.1065 146.4C69.0928 146.421 68.0907 146.621 67.1465 146.99C67.1465 146.99 67.1465 147.04 67.1465 147.035C68.1465 146.8 69.1115 146.705 70.1015 146.535C70.1144 146.53 70.1255 146.521 70.1334 146.509C70.1414 146.497 70.1458 146.484 70.1464 146.469C70.1469 146.455 70.1434 146.441 70.1364 146.429C70.1293 146.417 70.119 146.407 70.1065 146.4Z" fill="white"/>
<path d="M68.035 142.1C67.6141 142.096 67.1939 142.133 66.78 142.21C66.7723 142.213 66.7657 142.218 66.7611 142.224C66.7564 142.231 66.7539 142.239 66.7539 142.247C66.7539 142.255 66.7564 142.263 66.7611 142.27C66.7657 142.277 66.7723 142.282 66.78 142.285C67.1991 142.309 67.6196 142.291 68.035 142.23C68.0522 142.23 68.0688 142.223 68.0809 142.211C68.0931 142.199 68.1 142.182 68.1 142.165C68.1 142.148 68.0931 142.131 68.0809 142.119C68.0688 142.107 68.0522 142.1 68.035 142.1Z" fill="white"/>
<path d="M33.3064 135.946C36.431 137.005 39.4252 138.416 42.2314 140.151C45.1431 142.001 47.6681 144.398 49.6664 147.211C53.8709 153.063 57.09 159.564 59.1964 166.456C60.3712 170.271 61.0961 174.211 61.3564 178.196C61.3509 178.221 61.3368 178.244 61.3163 178.261C61.2958 178.278 61.2703 178.287 61.2439 178.287C61.2176 178.287 61.192 178.278 61.1715 178.261C61.151 178.244 61.1369 178.221 61.1314 178.196C60.2488 171.288 58.2883 164.561 55.3214 158.261C52.4064 152.086 48.7314 145.516 43.1114 141.426C40.0514 139.201 36.6114 137.741 33.1814 136.201C33.0014 136.141 33.1264 135.886 33.3064 135.946Z" fill="#EBEBEB"/>
<path d="M56.9555 162.05C54.7833 160.074 52.4007 158.342 49.8505 156.885C45.8805 154.68 42.6555 153.23 41.6705 151.305C40.6855 149.38 43.7505 146.88 43.7505 146.88C43.7505 146.88 39.7005 148.88 38.0205 147.405C36.3405 145.93 32.8105 135.73 32.8105 135.73C32.8105 135.73 42.1655 139.055 48.0005 145.8C53.8355 152.545 56.9555 162.05 56.9555 162.05Z" fill="#EBEBEB"/>
<path d="M49.1907 152.66C48.2709 152.596 47.3474 152.71 46.4707 152.995C46.4707 152.995 46.4707 153.04 46.4707 153.035C47.3651 152.882 48.2688 152.788 49.1757 152.755C49.2407 152.755 49.2557 152.665 49.1907 152.66Z" fill="white"/>
<path d="M41.0314 141.961C40.6119 141.926 40.1896 141.95 39.7764 142.031C39.7314 142.031 39.7464 142.111 39.7764 142.106C40.1914 142.061 40.5964 142.076 41.0064 142.066C41.0192 142.066 41.0317 142.062 41.0419 142.054C41.052 142.047 41.0592 142.036 41.0621 142.023C41.0651 142.011 41.0636 141.998 41.058 141.986C41.0524 141.975 41.043 141.966 41.0314 141.961Z" fill="white"/>
<path d="M69.0212 191.09H47.9062L50.9163 169.035L51.6863 163.38H65.2412L66.0113 169.035L69.0212 191.09Z" fill="#DBDBDB"/>
<path d="M66.011 169.035H50.916L51.686 163.38H65.241L66.011 169.035Z" fill="#C7C7C7"/>
<path d="M67.1761 161.42H49.7461V166.21H67.1761V161.42Z" fill="#DBDBDB"/>
<path d="M34.4805 191.09L72.4855 190.97L110.49 190.925L186.5 190.84L262.51 190.925L300.515 190.97L338.52 191.09L300.515 191.215L262.51 191.255L186.5 191.34L110.49 191.255L72.4855 191.21L34.4805 191.09Z" fill="#263238"/>
<path d="M187.501 228.355C266.682 228.355 330.871 221.321 330.871 212.645C330.871 203.968 266.682 196.935 187.501 196.935C108.32 196.935 44.1309 203.968 44.1309 212.645C44.1309 221.321 108.32 228.355 187.501 228.355Z" fill="#EBEBEB"/>
<path d="M154.125 210.045C152.96 210.44 119.555 210.545 118.275 209.755C117.775 209.455 117.49 204.59 117.275 198.7C117.23 197.43 117.195 196.115 117.165 194.785L114.5 176.965L136.835 176.82L138.94 194.645L138.855 198.565C138.855 198.565 151.665 204.24 152.975 205.27C154.285 206.3 155.29 209.65 154.125 210.045Z" fill="#FFC4C0"/>
<path d="M154.126 210.046C152.961 210.441 119.556 210.546 118.276 209.756C117.686 209.386 117.366 202.281 117.186 194.786L138.916 194.646L138.831 198.566C138.831 198.566 151.641 204.241 152.951 205.271C154.261 206.301 155.291 209.651 154.126 210.046Z" fill="white"/>
<path d="M154.125 210.045C152.96 210.44 119.555 210.545 118.275 209.755C117.775 209.455 117.49 204.59 117.275 198.7L138.81 198.565C138.81 198.565 151.62 204.24 152.93 205.27C154.24 206.3 155.29 209.65 154.125 210.045Z" fill="#A6A6A6"/>
<path d="M153.64 208.71C148.04 208.59 125.44 208.645 119.895 208.955C119.85 208.955 119.85 208.985 119.895 208.99C125.445 209.225 148.045 208.99 153.64 208.8C153.76 208.795 153.76 208.71 153.64 208.71Z" fill="#263238"/>
<path d="M150.794 204.075C150.171 204.061 149.552 204.177 148.977 204.414C148.401 204.652 147.881 205.006 147.449 205.455C146.662 206.257 146.218 207.332 146.209 208.455C146.209 208.49 146.269 208.49 146.274 208.455C146.46 207.349 146.999 206.333 147.81 205.558C148.621 204.783 149.66 204.291 150.774 204.155C150.785 204.158 150.796 204.156 150.805 204.151C150.815 204.145 150.821 204.136 150.824 204.125C150.827 204.115 150.825 204.104 150.819 204.094C150.814 204.085 150.805 204.078 150.794 204.075Z" fill="#263238"/>
<path d="M141 199.115C138.76 199.09 136.165 199.89 134.775 201.73C134.725 201.8 134.825 201.875 134.89 201.84C136.847 200.807 138.909 199.985 141.04 199.39C141.073 199.381 141.102 199.36 141.12 199.331C141.139 199.303 141.147 199.268 141.142 199.235C141.137 199.201 141.12 199.17 141.094 199.148C141.068 199.126 141.034 199.114 141 199.115Z" fill="#263238"/>
<path d="M142.739 199.78C140.494 199.78 137.899 200.56 136.514 202.395C136.459 202.47 136.559 202.545 136.629 202.51C138.583 201.474 140.643 200.651 142.774 200.055C142.806 200.046 142.835 200.026 142.853 199.998C142.872 199.97 142.88 199.936 142.876 199.903C142.872 199.869 142.855 199.838 142.83 199.816C142.805 199.793 142.773 199.781 142.739 199.78Z" fill="#263238"/>
<path d="M144.469 200.45C142.229 200.45 139.634 201.225 138.244 203.065C138.194 203.135 138.294 203.21 138.359 203.175C140.316 202.142 142.378 201.321 144.509 200.725C144.542 200.716 144.57 200.695 144.589 200.667C144.608 200.638 144.616 200.604 144.611 200.57C144.606 200.536 144.589 200.505 144.562 200.483C144.536 200.461 144.503 200.449 144.469 200.45Z" fill="#263238"/>
<path d="M146.205 201.121C143.96 201.096 141.365 201.896 139.98 203.736C139.925 203.806 140.03 203.881 140.095 203.846C142.052 202.812 144.114 201.991 146.245 201.396C146.278 201.387 146.307 201.366 146.325 201.337C146.344 201.309 146.352 201.274 146.347 201.241C146.342 201.207 146.325 201.176 146.299 201.154C146.273 201.132 146.239 201.12 146.205 201.121Z" fill="#263238"/>
<path d="M121.305 203.63C118.805 203.63 118.805 207.555 121.305 207.54C123.805 207.525 123.825 203.615 121.305 203.63Z" fill="#263238"/>
<path d="M143.405 193.125C142.27 192.185 140.84 193.125 140.145 194.09C138.988 195.796 138.298 197.775 138.145 199.83C138.145 199.875 138.18 199.895 138.215 199.895C138.223 199.937 138.242 199.977 138.27 200.01C138.297 200.044 138.332 200.07 138.372 200.087C138.411 200.105 138.455 200.112 138.498 200.109C138.541 200.106 138.583 200.093 138.62 200.07C140.21 198.965 142.05 197.975 143.255 196.41C143.94 195.5 144.5 194 143.405 193.125ZM140.675 197.895C139.905 198.46 139.11 198.985 138.36 199.58C138.76 198.46 139.105 197.33 139.615 196.25C139.85 195.732 140.121 195.231 140.425 194.75C140.925 194.005 143.105 192.125 143.335 194.56C143.465 195.895 141.59 197.225 140.675 197.895Z" fill="#263238"/>
<path d="M132.565 200.68C134.515 200.97 136.53 200.41 138.445 200.105C138.486 200.095 138.525 200.074 138.557 200.046C138.589 200.017 138.614 199.982 138.63 199.942C138.646 199.902 138.653 199.859 138.649 199.816C138.646 199.773 138.632 199.732 138.61 199.695C138.617 199.69 138.623 199.683 138.627 199.674C138.631 199.666 138.633 199.657 138.633 199.648C138.633 199.639 138.631 199.63 138.627 199.621C138.623 199.613 138.617 199.606 138.61 199.6C137.071 198.228 135.198 197.285 133.18 196.865C132 196.64 130.33 196.965 130.18 198.43C130 199.81 131.425 200.5 132.565 200.68ZM131.205 199.41C129.705 197.49 132.57 197.325 133.43 197.525C133.988 197.665 134.535 197.842 135.07 198.055C136.163 198.509 137.233 199.018 138.275 199.58C137.325 199.675 136.39 199.845 135.445 199.975C134.315 200.125 132.045 200.465 131.205 199.41Z" fill="#263238"/>
<path d="M81.6602 94.6006C81.6602 94.6006 107.595 138.721 108.29 141.821C109.355 146.581 115 193.586 115 193.586L142 193.086C142 193.086 137.35 151.641 132.945 137.986C129.775 128.151 106.885 95.5306 106.885 95.5306L81.6602 94.6006Z" fill="#37474F"/>
<path d="M139.544 188.966C135.669 188.936 121.934 188.781 116.774 189.261C116.734 189.261 116.739 189.331 116.774 189.336C118.549 189.591 135.664 189.196 139.539 189.071C139.547 189.074 139.556 189.075 139.565 189.073C139.573 189.072 139.581 189.069 139.588 189.065C139.596 189.06 139.602 189.053 139.606 189.046C139.61 189.038 139.612 189.03 139.613 189.022C139.613 189.013 139.612 189.004 139.608 188.996C139.605 188.989 139.599 188.982 139.593 188.976C139.586 188.971 139.578 188.967 139.57 188.965C139.561 188.963 139.553 188.963 139.544 188.966Z" fill="#263238"/>
<path d="M86.0851 98.6502C87.7851 101.315 89.5851 103.925 91.3151 106.57C93.0451 109.215 94.7851 111.86 96.5001 114.5C99.9201 119.834 103.253 125.202 106.5 130.605C108.085 133.11 109.44 135.752 110.55 138.5C111.563 141.249 112.325 144.084 112.825 146.97C113.355 149.865 113.705 152.79 114.03 155.715C114.363 158.825 114.712 161.937 115.075 165.05C115.785 171.42 116.497 177.79 117.21 184.16C117.295 184.94 117.38 185.72 117.46 186.505C117.46 186.62 117.265 186.64 117.25 186.505C116.455 180.18 115.795 173.83 115.075 167.505C114.715 164.349 114.357 161.194 114 158.04C113.665 155.105 113.345 152.165 112.89 149.25C112.473 146.373 111.837 143.531 110.99 140.75C110.057 137.87 108.806 135.103 107.26 132.5C104.135 127.105 100.825 121.805 97.5151 116.5C94.2051 111.195 90.8051 105.845 87.3151 100.605C86.8851 99.9602 86.4501 99.3152 86.0001 98.6802C85.9651 98.6452 86.0551 98.6002 86.0851 98.6502Z" fill="#263238"/>
<path d="M90.1599 212.645C88.9299 212.57 57.1599 199.7 56.2799 198.48C56.2407 198.408 56.2233 198.327 56.2299 198.245C56.2299 197.15 58.4349 193.33 60.2749 188.31C60.3899 187.99 61.2099 186.5 62.3449 184.495C65.4999 179 70.9999 169.535 70.9999 169.535L91.7649 177.785L81.8249 192.66L80.2799 196.26C80.2799 196.26 90.0249 206.335 90.8449 207.76C91.6649 209.185 91.3849 212.715 90.1599 212.645Z" fill="#FFC4C0"/>
<path d="M90.1599 212.645C88.9299 212.57 57.1599 199.7 56.2799 198.48C56.2407 198.408 56.2233 198.327 56.2299 198.245C56.2299 197.15 58.4349 193.33 60.2749 188.31C60.3899 187.99 61.2099 186.5 62.3449 184.495L81.8449 192.66L80.2999 196.26C80.2999 196.26 90.0449 206.335 90.8649 207.76C91.6849 209.185 91.3849 212.715 90.1599 212.645Z" fill="white"/>
<path d="M90.16 212.646C88.93 212.571 57.16 199.701 56.28 198.481C55.94 198.016 57.36 193.681 60.28 188.311L80.28 196.266C80.28 196.266 90.025 206.331 90.85 207.766C91.675 209.201 91.385 212.716 90.16 212.646Z" fill="#A6A6A6"/>
<path d="M90.2103 211.225C85.0653 209.015 64.0953 200.585 58.8403 198.795C58.7953 198.795 58.7853 198.795 58.8403 198.825C63.8953 201.125 84.9303 209.385 90.1903 211.325C90.2903 211.35 90.3203 211.27 90.2103 211.225Z" fill="#263238"/>
<path d="M89.3099 205.861C88.7394 205.61 88.1231 205.48 87.4999 205.48C86.8768 205.48 86.2604 205.61 85.6899 205.861C84.6641 206.31 83.8511 207.137 83.4199 208.171C83.4199 208.201 83.4649 208.226 83.4799 208.196C84.0694 207.237 84.9536 206.495 86.0002 206.081C87.0468 205.668 88.1993 205.604 89.2849 205.901C89.2933 205.898 89.3006 205.893 89.3052 205.885C89.3098 205.878 89.3115 205.869 89.3099 205.861Z" fill="#263238"/>
<path d="M82.0958 197.59C80.0308 196.725 77.3208 196.495 75.3458 197.68C75.2708 197.725 75.3458 197.83 75.4108 197.825C77.6124 197.602 79.8316 197.613 82.0308 197.86C82.0646 197.864 82.0986 197.855 82.1265 197.835C82.1543 197.816 82.1741 197.787 82.182 197.753C82.19 197.72 82.1856 197.686 82.1698 197.655C82.1539 197.625 82.1276 197.602 82.0958 197.59Z" fill="#263238"/>
<path d="M83.4493 198.86C81.3843 197.995 78.6743 197.765 76.6993 198.95C76.6243 198.995 76.6993 199.1 76.7643 199.095C78.9658 198.87 81.1853 198.881 83.3843 199.13C83.4181 199.134 83.4522 199.125 83.48 199.106C83.5078 199.086 83.5276 199.057 83.5355 199.024C83.5435 198.991 83.5391 198.956 83.5233 198.926C83.5074 198.896 83.4811 198.873 83.4493 198.86Z" fill="#263238"/>
<path d="M84.809 200.13C82.739 199.265 80.029 199.035 78.059 200.22C77.979 200.265 78.0591 200.37 78.1191 200.365C80.3206 200.139 82.54 200.151 84.739 200.4C84.7736 200.406 84.809 200.398 84.8384 200.379C84.8678 200.36 84.8889 200.331 84.8977 200.297C84.9065 200.263 84.9023 200.227 84.8859 200.196C84.8694 200.165 84.842 200.142 84.809 200.13Z" fill="#263238"/>
<path d="M86.1645 201.4C84.0945 200.535 81.3895 200.305 79.4145 201.485C79.3345 201.535 79.4145 201.64 79.4745 201.635C81.6761 201.409 83.8955 201.421 86.0945 201.67C86.129 201.676 86.1645 201.669 86.1939 201.65C86.2232 201.63 86.2444 201.601 86.2532 201.567C86.262 201.533 86.2577 201.497 86.2413 201.466C86.2249 201.436 86.1975 201.412 86.1645 201.4Z" fill="#263238"/>
<path d="M62.1407 194.385C59.8057 193.455 58.3557 197.09 60.7007 198.02C63.0457 198.95 64.5007 195.315 62.1407 194.385Z" fill="#263238"/>
<path d="M86.569 192.94C85.864 191.645 84.199 191.965 83.184 192.61C81.4741 193.756 80.0949 195.33 79.184 197.175C79.18 197.183 79.1778 197.192 79.1777 197.201C79.1776 197.21 79.1796 197.219 79.1835 197.228C79.1873 197.236 79.1929 197.243 79.1999 197.249C79.207 197.254 79.2152 197.258 79.224 197.26C79.224 197.425 79.334 197.62 79.529 197.58C81.424 197.145 83.499 196.92 85.199 195.92C86.174 195.34 87.234 194.165 86.569 192.94ZM82.244 196.335C81.319 196.57 80.389 196.76 79.474 197.03C80.2308 196.119 81.0335 195.246 81.879 194.415C82.2952 194.019 82.7379 193.652 83.204 193.315C83.929 192.815 86.669 191.89 85.969 194.235C85.584 195.53 83.349 196.055 82.244 196.335Z" fill="#263238"/>
<path d="M73.684 195.875C75.384 196.875 77.459 197.11 79.349 197.55C79.544 197.595 79.674 197.4 79.659 197.23C79.6684 197.229 79.6774 197.226 79.6851 197.22C79.6928 197.215 79.6989 197.207 79.7029 197.199C79.7069 197.19 79.7087 197.181 79.708 197.171C79.7073 197.162 79.7042 197.153 79.699 197.145C78.7896 195.296 77.4102 193.718 75.699 192.57C74.699 191.92 73.024 191.595 72.314 192.885C71.604 194.175 72.689 195.29 73.684 195.875ZM72.904 194.185C72.209 191.84 74.944 192.77 75.669 193.275C76.1346 193.612 76.5757 193.981 76.989 194.38C77.8329 195.212 78.6339 196.087 79.389 197C78.474 196.73 77.544 196.535 76.619 196.3C75.499 196 73.284 195.5 72.904 194.185Z" fill="#263238"/>
<path d="M83.4403 191.83L60.1953 182.445C60.1953 182.445 89.0153 140.07 89.2253 136.915C89.4153 134.125 76.7553 109.815 76.2603 102.73C75.7203 95.0802 79.4003 89.1652 83.4503 85.4902L107.425 95.6852C107.425 95.6852 104.895 99.7302 100.925 101.985C100.925 101.985 113.22 130.085 112.52 138.725C111.82 147.365 83.4403 191.83 83.4403 191.83Z" fill="#37474F"/>
<path d="M84.4708 187.41C81.1108 185.965 82.0958 186.33 78.7158 184.91C77.0658 184.22 66.2158 179.705 64.5458 179.33C64.5108 179.33 64.4858 179.38 64.5208 179.4C65.9658 180.285 76.9058 184.61 78.5708 185.27C81.9758 186.61 81.0108 186.19 84.4308 187.49C84.4359 187.497 84.4426 187.502 84.4504 187.506C84.4582 187.509 84.4668 187.511 84.4753 187.51C84.4837 187.509 84.4919 187.506 84.4989 187.501C84.506 187.497 84.5117 187.49 84.5155 187.482C84.5193 187.475 84.5211 187.466 84.5207 187.458C84.5203 187.449 84.5178 187.441 84.5133 187.434C84.5088 187.427 84.5026 187.421 84.4951 187.416C84.4877 187.412 84.4793 187.41 84.4708 187.41Z" fill="#263238"/>
<path d="M104.856 101.47C102.36 102.052 99.9174 102.845 97.5556 103.84C97.5461 103.843 97.5373 103.848 97.5298 103.855C97.5222 103.862 97.5161 103.87 97.5117 103.879C97.5072 103.888 97.5047 103.898 97.504 103.908C97.5034 103.918 97.5048 103.928 97.5081 103.937C97.5114 103.947 97.5165 103.956 97.5232 103.963C97.5299 103.971 97.538 103.977 97.547 103.981C97.5561 103.986 97.5659 103.988 97.576 103.989C97.586 103.99 97.5961 103.988 97.6056 103.985C100.056 103.27 102.546 102.6 104.956 101.755C105.141 101.69 105.046 101.43 104.856 101.47Z" fill="#263238"/>
<path d="M102 100.5C101.767 100.914 101.562 101.344 101.385 101.785C101.213 102.12 101.106 102.485 101.07 102.86C101.07 102.935 101.17 102.95 101.215 102.905C101.466 102.605 101.669 102.267 101.815 101.905C102.02 101.51 102.23 101.12 102.425 100.715C102.56 100.42 102.155 100.23 102 100.5Z" fill="#263238"/>
<path d="M102.301 98.2302C102.451 97.8602 102.596 97.4952 102.751 97.1252C102.906 96.7552 103.101 96.3752 103.251 95.9852C103.251 95.9252 103.371 95.9852 103.346 96.0302C103.196 96.4002 103.101 96.7902 102.986 97.1702C102.871 97.5502 102.741 97.9302 102.616 98.3102C102.381 99.0152 102.116 99.7152 101.791 100.4C102.184 100.42 102.577 100.352 102.941 100.2C103.312 99.9625 103.598 99.612 103.756 99.2002C103.966 98.7902 104.161 98.3702 104.376 97.9602C104.64 97.5169 104.863 97.0499 105.041 96.5652C105.041 96.5052 105.161 96.5652 105.136 96.6102C104.81 97.635 104.383 98.6249 103.861 99.5652C103.636 99.9302 103.461 100.315 103.051 100.455C102.607 100.579 102.142 100.612 101.686 100.55C101.626 100.55 101.556 100.55 101.576 100.46C101.78 99.7054 102.022 98.9611 102.301 98.2302Z" fill="#263238"/>
<path d="M101.279 102.9C102.134 104.705 102.884 106.505 103.679 108.305C104.474 110.105 105.179 111.845 105.894 113.635C107.324 117.245 108.604 120.925 109.729 124.635C110.284 126.475 110.799 128.33 111.259 130.2C111.766 132.064 112.137 133.963 112.369 135.88C112.57 137.795 112.4 139.73 111.869 141.58C111.318 143.409 110.61 145.188 109.754 146.895C109.229 147.975 109.054 147.83 109.304 147.285C110.019 145.735 111.894 141.04 111.759 137.095C111.65 135.207 111.358 133.333 110.889 131.5C110.452 129.61 109.961 127.735 109.414 125.875C108.349 122.205 107.084 118.61 105.784 115.02C105.054 113.02 104.284 111.02 103.534 109.02C102.784 107.02 102.034 105.18 101.194 102.97C101.169 102.88 101.254 102.845 101.279 102.9Z" fill="#263238"/>
<path d="M83.6347 96.9351C84.0497 96.7801 84.6347 97.0351 85.0547 97.1051C85.5986 97.1974 86.1482 97.2525 86.6997 97.2701C87.2453 97.2893 87.7916 97.2709 88.3347 97.2151C88.8816 97.201 89.4176 97.0588 89.8997 96.8001C90.6906 96.2239 91.3686 95.5069 91.8997 94.6851C92.5325 93.8452 93.0551 92.9278 93.4547 91.9551C93.4547 91.8951 93.5597 91.9551 93.5397 91.9951C93.3647 92.5501 93.2347 93.1101 93.0397 93.6551C92.8241 94.1671 92.5666 94.6605 92.2697 95.1301C91.7883 96.075 91.0763 96.8833 90.1997 97.4801C89.2347 98.0301 87.9947 97.9801 86.9197 97.9351C86.2962 97.8987 85.6762 97.8168 85.0647 97.6901C84.6247 97.5951 83.8847 97.5251 83.6047 97.1401C83.5915 97.1253 83.5817 97.1079 83.576 97.089C83.5703 97.0701 83.5689 97.0501 83.5717 97.0306C83.5746 97.011 83.5817 96.9923 83.5926 96.9758C83.6035 96.9593 83.6178 96.9454 83.6347 96.9351Z" fill="#263238"/>
<path d="M66.8298 178C70.6498 172.214 74.3998 166.38 78.0798 160.5C81.7598 154.62 85.3898 148.695 88.9698 142.725C89.8248 141.3 90.8098 139.88 91.3598 138.3C91.9598 136.585 91.6198 134.92 91.0798 133.24C90.0601 130.175 88.8682 127.171 87.5098 124.24C86.1698 121.285 84.7248 118.38 83.3048 115.465C81.8848 112.55 80.3998 109.67 79.3048 106.63C78.3048 103.725 77.8998 100.715 78.6798 97.7052C79.4598 94.6952 81.1398 92.0352 82.8948 89.5302C83.3548 88.8702 83.8298 88.2152 84.2948 87.5302C84.3298 87.4802 84.4048 87.5302 84.3698 87.5902C82.4348 90.2002 80.5498 92.9652 79.4148 96.0302C78.8347 97.541 78.5103 99.1379 78.4548 100.755C78.4454 102.397 78.7003 104.03 79.2098 105.59C80.1498 108.63 81.6348 111.505 83.0198 114.365C84.4048 117.225 85.8848 120.185 87.2498 123.13C88.658 126.094 89.9097 129.13 90.9998 132.225C91.4648 133.6 91.9998 135.04 91.9598 136.515C91.9248 138.13 91.1548 139.585 90.3548 140.945C86.8548 146.87 83.2698 152.725 79.6198 158.545C75.9698 164.365 72.2148 170.185 68.4148 175.945L66.9748 178.12C66.8998 178.21 66.7698 178.105 66.8298 178Z" fill="#263238"/>
<path d="M108.755 68.7354C110.92 73.4854 121.855 80.0304 126.975 80.7354C130.655 81.2354 141.845 81.4154 145.68 80.8304C150.18 80.1404 146.74 68.0154 144.085 68.3304C136.785 69.1804 130.585 70.1304 128.635 70.1304C126.255 70.1304 113.38 66.0004 111.83 65.4154C108.03 64.0004 107.53 66.0404 108.755 68.7354Z" fill="#FFC4C0"/>
<path d="M108.824 70.0003C111.564 74.0553 120.669 80.6853 120.669 80.6853L121.934 77.8853L126.119 68.6253C126.119 68.6253 117.754 66.0003 112.249 64.8003C111.601 64.6529 110.942 64.5592 110.279 64.5203C106.764 64.3303 106.459 66.5003 108.824 70.0003Z" fill="#63D1C5"/>
<path d="M108.824 70.0003C111.564 74.0553 120.669 80.6853 120.669 80.6853L121.934 77.8853C118.539 73.9403 113.294 67.9653 110.279 64.5303C106.764 64.3303 106.459 66.5003 108.824 70.0003Z" fill="#263238"/>
<path d="M119.03 78.8057C119.725 77.1007 122.815 70.2357 123.585 68.8057C123.635 68.7057 123.715 68.7157 123.67 68.8057C122.33 72.2196 120.804 75.5579 119.1 78.8057C119.08 78.8657 119 78.8457 119.03 78.8057Z" fill="#263238"/>
<path d="M142.744 68.4551C147.184 67.8751 152.679 66.8801 157.334 68.8551C157.857 69.0602 158.296 69.4353 158.579 69.9201C160.679 70.7701 160.909 72.0151 160.909 72.0151C162.624 73.4051 162.684 74.7151 162.684 74.7151C162.684 74.7151 165.144 75.7151 164.769 77.3251C164.359 79.1051 160.989 77.3251 158.539 77.4701C152.914 77.8201 145.039 79.8851 143.414 80.1451L142.744 68.4551Z" fill="#FFC4C0"/>
<path d="M152.39 73.695C154.035 73.5825 155.685 73.5825 157.33 73.695C159.121 73.9197 160.893 74.279 162.63 74.7699C162.641 74.7739 162.654 74.7733 162.665 74.7681C162.675 74.763 162.684 74.7537 162.688 74.7425C162.692 74.7312 162.691 74.7188 162.686 74.708C162.681 74.6972 162.671 74.6889 162.66 74.6849C159.397 73.4045 155.844 73.0448 152.39 73.6449C152.31 73.6349 152.31 73.7 152.39 73.695Z" fill="#263238"/>
<path d="M151.344 68.4999C154.089 68.6399 155.804 69.0799 158.564 69.9099V69.8799C155.524 68.6099 154.279 68.4899 151.329 68.3799C151.234 68.4199 151.239 68.4999 151.344 68.4999Z" fill="#263238"/>
<path d="M151.789 78.3203C151.074 78.6553 151.249 79.0303 152.614 79.3453C153.979 79.6603 159.654 79.7553 159.454 81.7353C159.254 83.7153 151.249 83.4653 149.014 82.7653C146.779 82.0653 143.414 80.1453 143.414 80.1453C144.999 79.8803 148.719 78.8753 151.789 78.3203Z" fill="#FFC4C0"/>
<path d="M114.7 76.3049C114.665 77.1599 114.585 78.0299 114.465 78.8949C114.465 78.8599 114.465 78.8299 114.5 78.7999C114.665 78.3499 114.83 77.8899 115.03 77.4549C115.03 77.4549 115.08 77.4549 115.075 77.4549C114.979 77.9316 114.835 78.3973 114.645 78.8449C114.555 79.0599 114.47 79.2699 114.375 79.4799C114.315 79.8649 114.245 80.2449 114.17 80.6249C114.02 81.3399 113.345 84.3799 113.17 84.8949C113.14 84.9999 113.01 84.9749 113.02 84.8549C113.055 84.2949 113.62 81.1299 113.735 80.4099C113.958 79.0197 114.257 77.6427 114.63 76.2849C114.655 76.2599 114.705 76.2799 114.7 76.3049Z" fill="#263238"/>
<path d="M109.5 99.0399C108.165 99.7249 106.445 100.79 98.6948 99.2649C98.1948 99.1649 97.7248 99.0449 97.2348 98.8999C89.9698 96.7199 81.2348 88.1749 80.7598 87.5699C80.7598 87.5699 92.3048 68.8549 107.07 62.9699C108.895 62.2449 111.915 63.6449 113.57 65.3899C114.165 66.0149 115.46 70.6099 114.965 74.3299C114.47 78.0499 110.83 98.3549 109.5 99.0399Z" fill="#63D1C5"/>
<path d="M108.46 74.1602C108.515 74.951 108.405 75.7447 108.135 76.4902C108.071 75.6991 108.182 74.9037 108.46 74.1602Z" fill="white"/>
<path d="M103.426 86.9053C103.457 87.2988 103.444 87.6948 103.386 88.0853C103.337 88.4787 103.242 88.8649 103.101 89.2353C103.066 88.8401 103.08 88.4422 103.141 88.0503C103.192 87.659 103.287 87.2749 103.426 86.9053Z" fill="white"/>
<path d="M94.8694 77.2705C94.9257 78.063 94.815 78.8585 94.5444 79.6055C94.4816 78.8128 94.5925 78.0159 94.8694 77.2705Z" fill="white"/>
<path d="M111.756 86.2549C111.788 86.6501 111.774 87.0477 111.716 87.4399C111.668 87.8333 111.572 88.2195 111.431 88.5899C111.396 88.1947 111.41 87.7968 111.471 87.4049C111.521 87.0119 111.617 86.626 111.756 86.2549Z" fill="white"/>
<path d="M100.77 75.6202C101.163 75.5867 101.559 75.5984 101.95 75.6552C102.343 75.705 102.729 75.8024 103.1 75.9452C102.309 76.002 101.515 75.8912 100.77 75.6202Z" fill="white"/>
<path d="M91.0605 84.8256C91.8514 84.7698 92.6451 84.8805 93.3905 85.1506C92.5995 85.214 91.8041 85.103 91.0605 84.8256Z" fill="white"/>
<path d="M102.5 94.7899C103.291 94.7331 104.085 94.8438 104.83 95.1149C104.039 95.1773 103.244 95.0664 102.5 94.7899Z" fill="white"/>
<path d="M88.0645 91.1703C88.8553 91.1145 89.649 91.2253 90.3944 91.4953C89.6034 91.5577 88.8082 91.4468 88.0645 91.1703Z" fill="white"/>
<path d="M108.385 65.2006C109.176 65.1448 109.969 65.2555 110.715 65.5256C109.924 65.5813 109.13 65.4706 108.385 65.2006Z" fill="white"/>
<path d="M105.559 68.3906C105.306 68.6945 105.018 68.9665 104.699 69.2006C104.389 69.4402 104.054 69.6448 103.699 69.8106C103.95 69.5087 104.236 69.2369 104.549 69.0006C104.862 68.7601 105.201 68.5555 105.559 68.3906Z" fill="white"/>
<path d="M90.1658 77.4551C89.9099 77.7563 89.6196 78.0265 89.3008 78.2601C88.9941 78.5042 88.6582 78.7091 88.3008 78.8701C88.558 78.5701 88.8482 78.3001 89.1658 78.0651C89.4732 77.822 89.809 77.6172 90.1658 77.4551Z" fill="white"/>
<path d="M109.39 81.5449C109.135 81.8477 108.844 82.1196 108.525 82.3549C108.218 82.598 107.882 82.8028 107.525 82.9649C107.781 82.6621 108.071 82.3903 108.39 82.1549C108.699 81.9143 109.035 81.7096 109.39 81.5449Z" fill="white"/>
<path d="M96.9392 89.3848C96.6834 89.6876 96.3931 89.9594 96.0742 90.1948C95.7663 90.4371 95.4306 90.6419 95.0742 90.8048C95.33 90.502 95.6203 90.2301 95.9392 89.9948C96.2483 89.7541 96.5838 89.5495 96.9392 89.3848Z" fill="white"/>
<path d="M114.16 70.835C113.904 71.1378 113.614 71.4096 113.295 71.645C112.985 71.8845 112.65 72.0891 112.295 72.255C112.551 71.9522 112.841 71.6803 113.16 71.445C113.468 71.2026 113.804 70.9978 114.16 70.835Z" fill="white"/>
<path d="M113.9 79.9207C113.598 79.6649 113.326 79.3746 113.09 79.0557C112.847 78.7485 112.642 78.4126 112.48 78.0557C112.784 78.3084 113.056 78.5972 113.29 78.9157C113.529 79.2278 113.734 79.5647 113.9 79.9207Z" fill="white"/>
<path d="M86.1505 86.1804C85.8477 85.9246 85.5758 85.6343 85.3405 85.3154C85.0998 85.0063 84.8952 84.6708 84.7305 84.3154C85.0333 84.5712 85.3051 84.8615 85.5405 85.1804C85.7828 85.4883 85.9876 85.824 86.1505 86.1804Z" fill="white"/>
<path d="M110.525 93.6256C110.222 93.3729 109.95 93.0841 109.715 92.7656C109.476 92.4558 109.271 92.1204 109.105 91.7656C109.408 92.0214 109.68 92.3117 109.915 92.6306C110.157 92.9375 110.361 93.2714 110.525 93.6256Z" fill="white"/>
<path d="M98.3106 72.4C98.0079 72.146 97.7361 71.8574 97.5006 71.54C97.2621 71.2295 97.0575 70.8943 96.8906 70.54C97.1945 70.7928 97.4665 71.0816 97.7006 71.4C97.9392 71.7106 98.1437 72.0458 98.3106 72.4Z" fill="white"/>
<path d="M98.5255 97.865C98.2227 97.6092 97.9508 97.3189 97.7155 97C97.4756 96.6904 97.271 96.355 97.1055 96C97.4093 96.2528 97.6813 96.5416 97.9155 96.86C98.1561 97.1709 98.3607 97.5081 98.5255 97.865Z" fill="white"/>
<path d="M100.601 82.8455C100.301 82.5883 100.031 82.2981 99.7955 81.9805C99.5514 81.6738 99.3465 81.3379 99.1855 80.9805C99.4868 81.2363 99.757 81.5267 99.9905 81.8455C100.234 82.1529 100.438 82.4887 100.601 82.8455Z" fill="white"/>
<path d="M110.864 70.3749C108.979 70.0249 107.209 66.1299 106.984 63.5099C106.984 63.3299 107.864 61.9049 108.869 60.1199C109.479 59.0349 110.124 57.8099 110.639 56.6499C110.744 56.4149 111.359 57.2099 111.359 57.2099L112.699 58.2099L117.124 61.6049C116.071 62.8693 115.176 64.258 114.459 65.7399C114.389 65.9005 114.335 66.0681 114.299 66.2399C114.297 66.2682 114.297 66.2966 114.299 66.3249C114.024 67.3149 112.679 70.7099 110.864 70.3749Z" fill="#FFC4C0"/>
<path d="M114.299 66.2649C114.297 66.2932 114.297 66.3216 114.299 66.3499C114.036 66.2729 113.78 66.1742 113.534 66.0549C108.689 63.7849 110.824 57.2949 110.824 57.2949L112.724 58.2349L117.149 61.6299C116.095 62.8944 115.2 64.283 114.484 65.7649C114.405 65.9245 114.343 66.0921 114.299 66.2649Z" fill="#263238"/>
<path d="M122.209 47.79C122.209 47.79 124.424 49.195 124.434 51.695C124.444 54.195 123.434 56.64 123.224 56.73C123.014 56.82 122.209 47.79 122.209 47.79Z" fill="#263238"/>
<path d="M111.219 49.09C109.889 51.715 109.959 59.99 111.619 62.12C114.029 65.21 118.669 66.275 121.474 63.22C124.189 60.26 123.909 49.48 121.974 47.47C119.159 44.5 113.189 45.205 111.219 49.09Z" fill="#FFC4C0"/>
<path d="M118.28 55.7148C118.28 55.7148 118.235 55.7448 118.24 55.7648C118.27 56.3298 118.21 56.9798 117.705 57.1798C117.705 57.1798 117.705 57.2148 117.705 57.2098C118.33 57.1098 118.4 56.2448 118.28 55.7148Z" fill="#263238"/>
<path d="M117.765 55.1407C116.855 55.0907 116.825 56.9107 117.67 56.9557C118.515 57.0007 118.525 55.1807 117.765 55.1407Z" fill="#263238"/>
<path d="M121.365 55.6953C121.365 55.6953 121.41 55.6953 121.41 55.7453C121.38 56.3103 121.445 56.9603 121.955 57.1553C121.955 57.1553 121.955 57.1903 121.955 57.1853C121.325 57.0903 121.25 56.2253 121.365 55.6953Z" fill="#263238"/>
<path d="M121.88 55.1155C122.785 55.0605 122.83 56.8805 121.99 56.9305C121.15 56.9805 121.12 55.1605 121.88 55.1155Z" fill="#263238"/>
<path d="M117.194 53.7553C117.433 53.6873 117.668 53.6072 117.899 53.5153C118.162 53.4678 118.401 53.3341 118.579 53.1353C118.622 53.0626 118.64 52.9776 118.63 52.8935C118.621 52.8095 118.583 52.731 118.524 52.6703C118.389 52.5675 118.229 52.5026 118.06 52.4824C117.891 52.4621 117.72 52.4873 117.564 52.5553C117.227 52.6457 116.935 52.8576 116.744 53.1503C116.706 53.22 116.689 53.2991 116.694 53.3782C116.7 53.4574 116.728 53.5333 116.775 53.597C116.823 53.6607 116.887 53.7094 116.962 53.7375C117.036 53.7655 117.117 53.7717 117.194 53.7553Z" fill="#263238"/>
<path d="M122.499 54.56C122.256 54.5056 122.016 54.4388 121.779 54.36C121.516 54.3251 121.271 54.2038 121.084 54.015C121.036 53.9454 121.013 53.8617 121.018 53.7772C121.024 53.6928 121.058 53.6127 121.114 53.55C121.243 53.4397 121.4 53.3662 121.567 53.3372C121.734 53.3081 121.906 53.3247 122.064 53.385C122.406 53.4558 122.71 53.652 122.914 53.935C122.957 54.0019 122.98 54.0799 122.979 54.1594C122.978 54.2389 122.955 54.3165 122.911 54.3827C122.867 54.4489 122.804 54.501 122.731 54.5324C122.658 54.5639 122.578 54.5735 122.499 54.56Z" fill="#263238"/>
<path d="M117.001 61.0599C117.136 61.1949 117.266 61.3749 117.471 61.3949C117.681 61.3948 117.889 61.3505 118.081 61.2649C118.081 61.2649 118.116 61.2649 118.081 61.2949C117.999 61.4048 117.888 61.4904 117.762 61.5423C117.635 61.5943 117.496 61.6108 117.361 61.5899C117.246 61.5588 117.144 61.4948 117.066 61.4059C116.987 61.3171 116.937 61.2072 116.921 61.0899C116.917 61.0793 116.917 61.0676 116.922 61.0573C116.926 61.047 116.935 61.0389 116.946 61.0349C116.956 61.031 116.968 61.0314 116.978 61.0361C116.989 61.0407 116.997 61.0493 117.001 61.0599Z" fill="#263238"/>
<path d="M120.27 58.65C120.27 58.65 120.295 59.49 120.27 59.885C119.501 59.8035 118.725 59.8304 117.965 59.965C117.785 60.005 117.805 59.86 118.01 59.765C118.623 59.4849 119.305 59.3944 119.97 59.505C120.01 59.4 119.905 58.205 119.97 58.21C120.272 58.2694 120.565 58.3703 120.84 58.51C120.84 56.75 120.56 55.01 120.585 53.25C120.585 53.19 120.68 53.18 120.69 53.25C121.045 55.1118 121.213 57.0047 121.19 58.9C121.195 59.115 120.42 58.73 120.27 58.65Z" fill="#263238"/>
<path d="M119.145 59.5855C118.946 60.1098 118.576 60.5518 118.095 60.8405C117.34 61.1455 117.095 60.4605 117.855 59.8405C118.254 59.639 118.7 59.5508 119.145 59.5855Z" fill="#263238"/>
<path d="M118.359 60.6849C118.28 60.7499 118.19 60.8022 118.094 60.8399C117.399 61.1199 117.124 60.5649 117.684 60.0049C118.064 60.0349 118.499 60.1749 118.359 60.6849Z" fill="#FF99BA"/>
<path d="M110.841 56.1653C111.756 56.4453 112.806 53.6953 113.106 52.6653C113.366 51.7353 113.666 48.7803 113.711 48.5753C113.756 48.3703 117.711 51.1903 120.001 50.5203C122.291 49.8503 123.846 47.7753 123.881 46.8103C123.916 45.8453 121.051 43.3953 118.576 43.2703C116.101 43.1453 112.746 46.2703 112.746 46.2703C113.151 45.8104 113.519 45.3188 113.846 44.8003C113.806 44.6903 112.206 45.3303 111.911 46.4703C111.911 46.4703 112.231 45.0353 112.111 45.0103C111.991 44.9853 110.746 46.2103 111.026 47.1403C111.026 47.1403 109.586 48.3853 109.456 49.7503C109.326 51.1153 109.766 55.8353 110.841 56.1653Z" fill="#263238"/>
<path d="M121.64 50C120.959 50.3693 120.226 50.6323 119.465 50.78C118.612 50.8562 117.753 50.7187 116.965 50.38C116.172 50.0736 115.436 49.6377 114.785 49.09C114.21 48.62 113.695 48.045 113.08 47.625C112.925 47.515 112.75 47.74 112.845 47.88C113.871 49.3293 115.337 50.4093 117.025 50.96C117.809 51.2157 118.646 51.2634 119.454 51.0987C120.262 50.9339 121.014 50.5622 121.635 50.02C121.635 50.02 121.65 50 121.64 50Z" fill="#263238"/>
<path d="M111.794 55.9199C111.794 55.9199 110.374 53.0399 109.094 53.5049C107.814 53.9699 108.594 57.9549 109.909 58.6849C110.07 58.7891 110.251 58.8597 110.44 58.8925C110.629 58.9253 110.822 58.9196 111.009 58.8757C111.196 58.8318 111.372 58.7506 111.526 58.6371C111.681 58.5236 111.811 58.38 111.909 58.2149L111.794 55.9199Z" fill="#FFC4C0"/>
<path d="M109.349 54.6406C109.349 54.6406 109.319 54.6406 109.349 54.6806C110.259 55.2206 110.629 56.1806 110.849 57.1806C110.808 57.0748 110.744 56.9792 110.662 56.9004C110.58 56.8217 110.482 56.7617 110.374 56.7246C110.267 56.6875 110.153 56.6742 110.04 56.6856C109.926 56.697 109.817 56.7329 109.719 56.7906C109.689 56.7906 109.719 56.8456 109.719 56.8456C109.898 56.8178 110.081 56.8462 110.243 56.9267C110.405 57.0073 110.539 57.1362 110.624 57.2956C110.767 57.5626 110.881 57.8442 110.964 58.1356C110.994 58.2306 111.159 58.2056 111.144 58.1006C111.359 56.8556 110.659 54.9706 109.349 54.6406Z" fill="#263238"/>
<path d="M102.419 68.7798C101.419 74.4448 107.559 93.5298 111.494 97.0948C117.349 102.395 128.174 105.88 132.099 107.015C133.809 107.515 138.539 95.4798 136.809 94.6848C133.104 92.9998 121.594 89.3998 120.499 88.4998C119.404 87.5998 112.804 78.0648 109.864 72.5748C105.929 65.1848 102.914 65.9148 102.419 68.7798Z" fill="#FFC4C0"/>
<path d="M133.895 93.625C133.895 93.625 139.005 94.93 142.3 95.935C144.14 96.5 147.21 97.745 148.375 98.775C150.115 100.32 156.405 107.88 154.605 109.445C152.975 110.865 148.395 103.68 148.395 103.68C148.395 103.68 153.655 110.52 151.395 111.865C149.135 113.21 145 104.405 145 104.405C145 104.405 150.245 111.555 147.68 112.57C145.74 113.335 141.58 105.57 141.58 105.57C141.58 105.57 146.05 111.745 144.08 112.62C141.91 113.59 137.625 106.66 137.625 106.66C132.265 108.045 129.125 106.51 127.06 105.16C126.575 104.83 133.895 93.625 133.895 93.625Z" fill="#FFC4C0"/>
<path d="M146.725 101.195C147.375 101.975 148.035 102.765 148.61 103.6C149.185 104.435 149.73 105.295 150.225 106.18C150.896 107.324 151.433 108.542 151.825 109.81C150.965 107.61 148.95 104.585 148.375 103.75C147.8 102.915 147.265 102.05 146.695 101.215C146.68 101.195 146.71 101.175 146.725 101.195Z" fill="#263238"/>
<path d="M143.67 103.22C144.78 104.1 147.105 107.37 148 109.565C148.04 109.655 148 109.65 147.935 109.565C147.235 108.48 144.395 104.28 143.645 103.235C143.63 103.22 143.655 103.205 143.67 103.22Z" fill="#263238"/>
<path d="M140.736 104.5C142.115 105.947 143.205 107.644 143.946 109.5C143.981 109.59 143.911 109.575 143.856 109.5C142.821 107.815 142.021 106.5 140.681 104.545C140.661 104.5 140.706 104.455 140.736 104.5Z" fill="#263238"/>
<path d="M107.999 69.1949C103.434 62.7399 100.704 65.1299 101.619 72.1399C102.479 78.6949 104.774 86.5049 104.774 86.5049L116.274 80.9249C116.274 80.9249 110.904 73.3299 107.999 69.1949Z" fill="#63D1C5"/>
<path d="M110.775 71.7354C110.926 72.0999 111.035 72.4808 111.1 72.8704C111.17 73.2612 111.195 73.6588 111.175 74.0554C111.025 73.6889 110.917 73.3064 110.855 72.9154C110.78 72.5267 110.753 72.1305 110.775 71.7354Z" fill="white"/>
<path d="M103.959 75.6602C104.693 75.3617 105.483 75.2253 106.274 75.2602C105.909 75.4102 105.528 75.5176 105.139 75.5802C104.75 75.6545 104.354 75.6813 103.959 75.6602Z" fill="white"/>
<path d="M104.255 65.6201C103.946 66.3508 103.484 67.0071 102.9 67.5451C103.21 66.8144 103.672 66.1581 104.255 65.6201Z" fill="white"/>
<path d="M114 78.6748C113.848 79.0405 113.655 79.3877 113.425 79.7098C113.2 80.036 112.938 80.3347 112.645 80.5998C112.954 79.8691 113.416 79.2128 114 78.6748Z" fill="white"/>
<path d="M105.999 82.5903C105.633 82.4403 105.285 82.2473 104.964 82.0154C104.638 81.7913 104.339 81.5295 104.074 81.2354C104.805 81.545 105.461 82.0069 105.999 82.5903Z" fill="white"/>
<path d="M109.5 71.1406C110.115 71.9856 110.75 72.8106 111.38 73.6406C111.22 73.2206 111.08 72.7956 110.96 72.3656H110.99C111.115 72.6956 111.26 73.0206 111.38 73.3656L111.56 73.8656C111.575 73.8998 111.589 73.9348 111.6 73.9706C112.1 74.6156 112.6 75.2606 113.06 75.9206C113.625 76.7106 114.17 77.5106 114.72 78.3106C115.27 79.1106 115.825 80.1056 116.42 80.9106C116.475 80.9806 115.42 81.4106 115.305 81.4656C115.19 81.5206 115.13 81.4256 115.24 81.3906C115.35 81.3556 116.19 80.8406 116.2 80.8306C115.65 80.0206 115.015 79.2756 114.44 78.4906C113.865 77.7056 113.295 76.9206 112.74 76.1256C111.615 74.5056 110.585 72.8256 109.465 71.2006L109.5 71.1406Z" fill="#263238"/>
<path d="M101.89 76.7801C102.065 77.1201 102.255 77.4551 102.39 77.8051L102.58 78.2401C102.315 76.9951 102.08 75.7401 101.805 74.4951C102.335 76.4951 102.87 78.5401 103.36 80.5701C103.825 82.5101 104.39 84.4701 104.66 86.4501C105.008 86.2972 105.37 86.175 105.74 86.0851C105.368 86.3254 104.969 86.5186 104.55 86.6601C103.947 84.6467 103.446 82.6041 103.05 80.5401C102.925 79.9801 102.81 79.4201 102.69 78.8601C102.56 78.5201 102.405 78.1951 102.25 77.8601C102.095 77.5251 101.955 77.1501 101.815 76.7951C101.845 76.7751 101.88 76.7551 101.89 76.7801Z" fill="#263238"/>
<path d="M104.946 84.5757C106.546 83.6757 113.231 80.2157 114.726 79.5757C114.831 79.5307 114.886 79.5757 114.781 79.6457C111.607 81.4895 108.336 83.1587 104.981 84.6457C104.941 84.6557 104.901 84.6007 104.946 84.5757Z" fill="#263238"/>
<path d="M288.16 216.026H135.82L157.845 91.1006H310.185L288.16 216.026Z" fill="#63D1C5"/>
<path d="M209.986 78.1602H160.131L157.846 91.1002H211.201L209.986 78.1602Z" fill="#63D1C5"/>
<g opacity="0.1">
<path d="M288.16 216.026H135.82L157.845 91.1006H310.185L288.16 216.026Z" fill="black"/>
<path d="M209.986 78.1602H160.131L157.846 91.1002H211.201L209.986 78.1602Z" fill="black"/>
</g>
<path d="M154.75 83.4398C154.417 82.009 154.417 80.5207 154.75 79.0898C155.083 80.5207 155.083 82.009 154.75 83.4398Z" fill="#263238"/>
<path d="M150.321 84.72C149.812 84.1921 149.373 83.6005 149.016 82.96C148.641 82.3328 148.347 81.6608 148.141 80.96C148.651 81.4848 149.09 82.0749 149.446 82.715C149.82 83.3443 150.113 84.0179 150.321 84.72Z" fill="#263238"/>
<path d="M147.12 88.0451C145.715 87.6179 144.427 86.8738 143.355 85.8701C144.056 86.0739 144.729 86.3662 145.355 86.7401C145.996 87.0997 146.589 87.5381 147.12 88.0451Z" fill="#263238"/>
<path d="M146 92.5254C144.57 92.8588 143.081 92.8588 141.65 92.5254C143.081 92.192 144.57 92.192 146 92.5254Z" fill="#263238"/>
<path d="M147.299 96.9551C146.769 97.4615 146.178 97.8999 145.539 98.2601C144.912 98.634 144.24 98.9263 143.539 99.1301C144.067 98.621 144.659 98.1823 145.299 97.8251C145.925 97.4494 146.597 97.1569 147.299 96.9551Z" fill="#263238"/>
<path d="M150.62 100.15C150.195 101.558 149.45 102.848 148.445 103.92C148.649 103.219 148.943 102.546 149.32 101.92C149.677 101.278 150.114 100.683 150.62 100.15Z" fill="#263238"/>
<path d="M155.099 101.255C155.273 101.967 155.357 102.697 155.349 103.43C155.36 104.163 155.276 104.894 155.099 105.605C154.92 104.894 154.836 104.163 154.849 103.43C154.841 102.697 154.925 101.967 155.099 101.255Z" fill="#263238"/>
<path d="M159.529 100C160.038 100.528 160.477 101.12 160.834 101.76C161.21 102.386 161.502 103.059 161.704 103.76C160.699 102.687 159.955 101.397 159.529 99.9902V100Z" fill="#263238"/>
<path d="M162.725 96.6504C163.426 96.8522 164.099 97.1447 164.725 97.5204C165.365 97.8776 165.957 98.3163 166.485 98.8254C165.783 98.6235 165.111 98.3311 164.485 97.9554C163.844 97.5981 163.253 97.1595 162.725 96.6504Z" fill="#263238"/>
<path d="M163.83 92.1699C165.263 91.8366 166.753 91.8366 168.185 92.1699C166.753 92.5031 165.263 92.5031 163.83 92.1699Z" fill="#263238"/>
<path d="M162.549 87.7404C163.078 87.2344 163.67 86.7976 164.309 86.4404C164.934 86.0611 165.606 85.7669 166.309 85.5654C165.236 86.5705 163.946 87.3148 162.539 87.7404H162.549Z" fill="#263238"/>
<path d="M159.225 84.5452C159.43 83.845 159.723 83.1731 160.095 82.5452C160.452 81.9046 160.89 81.3131 161.4 80.7852C161.198 81.4868 160.905 82.1591 160.53 82.7852C160.172 83.4257 159.734 84.0172 159.225 84.5452Z" fill="#263238"/>
<path d="M287.935 216.025H135.27L113.59 95.6348H266.26L287.935 216.025Z" fill="#63D1C5"/>
<path d="M166.495 169.23C170 169.23 172.84 166.389 172.84 162.885C172.84 159.381 170 156.54 166.495 156.54C162.991 156.54 160.15 159.381 160.15 162.885C160.15 166.389 162.991 169.23 166.495 169.23Z" fill="#263238"/>
<path d="M216.656 169.23C220.16 169.23 223.001 166.389 223.001 162.885C223.001 159.381 220.16 156.54 216.656 156.54C213.151 156.54 210.311 159.381 210.311 162.885C210.311 166.389 213.151 169.23 216.656 169.23Z" fill="#263238"/>
<path d="M200.69 170.245L200.34 169.58C200.31 169.52 197.03 163.46 190.435 163.46C184.435 163.46 182.935 169.165 182.895 169.41L182.715 170.135L181.26 169.785L181.435 169.055C181.435 168.985 183.225 161.96 190.435 161.96C197.935 161.96 201.52 168.6 201.67 168.885L202.02 169.545L200.69 170.245Z" fill="#263238"/>
<path d="M277.855 162.4L277.75 161.9C278.075 161.83 278.395 161.755 278.715 161.67L278.84 162.17C278.5 162.255 278.185 162.33 277.855 162.4Z" fill="#263238"/>
<path d="M280.774 161.595L280.614 161.125C281.239 160.91 281.864 160.675 282.469 160.42L282.664 160.88C282.049 161.14 281.414 161.38 280.774 161.595ZM284.499 160L284.274 159.56C284.859 159.255 285.444 158.925 285.999 158.56L286.259 158.985C285.689 159.38 285.094 159.715 284.499 160ZM287.939 157.885L287.644 157.48C288.184 157.085 288.704 156.67 289.194 156.245L289.524 156.62C288.999 157.075 288.499 157.5 287.934 157.905L287.939 157.885ZM290.989 155.225L290.624 154.88C291.084 154.38 291.519 153.88 291.919 153.38L292.314 153.685C291.899 154.235 291.454 154.75 290.999 155.245L290.989 155.225ZM293.464 152.025L293.039 151.76C293.385 151.201 293.692 150.62 293.959 150.02L294.419 150.225C294.137 150.851 293.816 151.458 293.459 152.045L293.464 152.025ZM295.119 148.315L294.619 148.175C294.802 147.548 294.937 146.907 295.024 146.26L295.524 146.325C295.442 147.005 295.304 147.677 295.114 148.335L295.119 148.315ZM295.674 144.315H295.174V144.17C295.174 143.565 295.139 142.95 295.079 142.345L295.579 142.295C295.645 142.918 295.678 143.544 295.679 144.17L295.674 144.315ZM294.774 140.4C294.64 139.755 294.473 139.118 294.274 138.49L294.774 138.34C294.979 138.99 295.154 139.65 295.274 140.295L294.774 140.4ZM293.589 136.635C293.349 136.045 293.089 135.44 292.769 134.83L293.219 134.605C293.524 135.225 293.804 135.845 294.049 136.445L293.589 136.635ZM291.839 133.07C291.529 132.525 291.189 131.95 290.839 131.36L291.264 131.095C291.629 131.69 291.974 132.27 292.264 132.825L291.839 133.07ZM289.749 129.675C289.384 129.125 289.014 128.57 288.634 128.015L289.049 127.735C289.429 128.29 289.799 128.845 290.164 129.405L289.749 129.675ZM287.499 126.365C287.124 125.815 286.744 125.26 286.374 124.71L286.789 124.43C287.159 124.98 287.534 125.535 287.909 126.08L287.499 126.365ZM285.264 123.035C284.899 122.475 284.544 121.905 284.194 121.335L284.619 121.075C284.969 121.645 285.324 122.205 285.684 122.765L285.264 123.035ZM283.179 119.6C282.839 118.995 282.524 118.395 282.239 117.82L282.689 117.595C282.969 118.165 283.284 118.755 283.614 119.355L283.179 119.6ZM281.404 116C281.139 115.375 280.904 114.74 280.684 114.12L281.184 113.96C281.394 114.565 281.629 115.19 281.889 115.805L281.404 116ZM280.104 112.185C279.939 111.535 279.794 110.87 279.684 110.185L280.184 110.105C280.294 110.745 280.429 111.395 280.594 112.035L280.104 112.185ZM279.434 108.185C279.384 107.57 279.359 106.95 279.359 106.33V106.165H279.859V106.325C279.859 106.93 279.859 107.54 279.934 108.14L279.434 108.185ZM279.934 104.185L279.434 104.135C279.434 104 279.459 103.86 279.474 103.715C279.534 103.18 279.609 102.645 279.699 102.135L280.199 102.22C280.114 102.72 280.039 103.245 279.979 103.77C279.999 103.925 279.999 104.06 279.959 104.2L279.934 104.185ZM280.629 100.295L280.129 100.16C280.314 99.4999 280.529 98.8549 280.769 98.2399L281.234 98.4199C281.007 99.039 280.814 99.6699 280.654 100.31L280.629 100.295ZM305.544 97.3799C305.264 97.3799 304.974 97.3399 304.689 97.2999C304.299 97.2449 303.909 97.1799 303.524 97.1049L303.624 96.6049C303.994 96.6749 304.379 96.7399 304.759 96.7949C305.029 96.8299 305.304 96.8549 305.569 96.8699L305.544 97.3799ZM307.599 97.2249L307.494 96.7249C308.122 96.5954 308.723 96.3622 309.274 96.0349L309.534 96.4599C308.946 96.8244 308.3 97.088 307.624 97.2399L307.599 97.2249ZM282.069 96.6299L281.624 96.3949C281.943 95.7986 282.295 95.221 282.679 94.6649L283.089 94.9499C282.724 95.4944 282.392 96.0605 282.094 96.6449L282.069 96.6299ZM301.569 96.5999C300.924 96.3952 300.29 96.1565 299.669 95.8849L299.874 95.4249C300.475 95.692 301.091 95.9241 301.719 96.1199L301.569 96.5999ZM311.069 95.0399L310.654 94.7599C311.01 94.2434 311.221 93.6407 311.264 93.0149L311.764 93.0499C311.722 93.7672 311.487 94.4598 311.084 95.0549L311.069 95.0399ZM297.869 94.9649C297.284 94.6248 296.718 94.2526 296.174 93.8499L296.469 93.4499C296.999 93.8404 297.55 94.201 298.119 94.5299L297.869 94.9649ZM284.319 93.4049L283.949 93.0699C284.402 92.5664 284.885 92.0906 285.394 91.6449L285.724 92.0199C285.234 92.4588 284.77 92.9263 284.334 93.4199L284.319 93.4049ZM294.614 92.5599C294.116 92.1012 293.644 91.6155 293.199 91.1049L293.574 90.7749C294.007 91.2708 294.466 91.7432 294.949 92.1899L294.614 92.5599ZM310.889 91.2049C310.603 90.6335 310.207 90.1239 309.724 89.7049L310.054 89.3299C310.586 89.7895 311.022 90.3482 311.339 90.9749L310.889 91.2049ZM287.279 90.8099L286.994 90.3999C287.554 90.018 288.133 89.6659 288.729 89.3449L288.964 89.7849C288.39 90.1023 287.833 90.4495 287.294 90.8249L287.279 90.8099ZM291.949 89.5099C291.759 89.2399 291.574 88.9649 291.399 88.6799L290.749 88.9349L290.559 88.4749L291.134 88.2449C291.044 88.0949 290.954 87.9449 290.869 87.7949L291.304 87.5499C291.404 87.7249 291.504 87.8999 291.609 88.0499C291.889 87.9499 292.174 87.8549 292.464 87.7649L292.609 88.2649C292.364 88.3399 292.109 88.4199 291.879 88.5049C292.034 88.7499 292.194 89.0049 292.379 89.2199L291.949 89.5099ZM308.114 88.6499C307.631 88.4088 307.129 88.2049 306.614 88.0399L306.284 87.9349L306.429 87.4349L306.769 87.5449C307.305 87.7157 307.827 87.928 308.329 88.1799L308.114 88.6499ZM294.524 87.7549L294.419 87.2549C295.064 87.1099 295.734 86.9899 296.419 86.8949L296.494 87.3949C295.834 87.4999 295.179 87.6249 294.539 87.7699L294.524 87.7549ZM304.374 87.4849C303.749 87.3749 303.089 87.2899 302.414 87.2299L302.454 86.7299C303.149 86.7899 303.824 86.8749 304.454 86.9899L304.374 87.4849ZM298.449 87.1949L298.414 86.6949C299.009 86.6599 299.604 86.6399 300.194 86.6399H300.439V87.1399H300.199C299.634 87.1549 299.044 87.1699 298.464 87.2099L298.449 87.1949ZM289.999 85.9999C289.729 85.3899 289.499 84.7549 289.274 84.1099L289.774 83.9549C289.984 84.5849 290.219 85.2049 290.479 85.7999L289.999 85.9999ZM288.734 82.1599C288.584 81.5149 288.459 80.8449 288.364 80.1599L288.864 80.0899C288.959 80.7499 289.079 81.4049 289.224 82.0399L288.734 82.1599ZM288.174 78.1599C288.149 77.7099 288.134 77.2499 288.134 76.7899C288.134 76.5749 288.134 76.3549 288.134 76.1399H288.634C288.634 76.3549 288.634 76.5649 288.634 76.7799C288.634 77.2299 288.634 77.6849 288.669 78.1199L288.174 78.1599ZM288.769 74.1599L288.269 74.1099C288.339 73.4499 288.434 72.7749 288.549 72.1099L289.049 72.1949C288.914 72.8599 288.819 73.4999 288.754 74.1699L288.769 74.1599ZM289.454 70.2549L288.954 70.1349C289.114 69.4899 289.299 68.8399 289.504 68.1899L290.004 68.3449C289.779 68.9999 289.594 69.6349 289.439 70.2649L289.454 70.2549ZM290.654 66.4699L290.189 66.2899C290.434 65.6649 290.689 65.0399 290.994 64.4349L291.444 64.6549C291.144 65.2549 290.879 65.8649 290.639 66.4999L290.654 66.4699ZM292.374 62.9049L291.939 62.6499C292.279 62.0749 292.644 61.4999 293.024 60.9499L293.434 61.2349C293.044 61.7849 292.689 62.3449 292.359 62.9149L292.374 62.9049ZM294.629 59.6499L294.239 59.3349C294.659 58.8349 295.109 58.3049 295.574 57.8349L295.934 58.1799C295.464 58.6499 295.024 59.1499 294.614 59.6599L294.629 59.6499ZM297.349 56.7699L297.014 56.3999C297.514 55.9549 298.014 55.5149 298.549 55.0899L298.859 55.4849C298.324 55.9099 297.814 56.3449 297.334 56.7799L297.349 56.7699ZM300.454 54.2999L300.169 53.8849C300.714 53.5099 301.284 53.1399 301.864 52.7899L302.119 53.2149C301.539 53.5699 300.999 53.9349 300.439 54.3099L300.454 54.2999ZM303.849 52.2349L303.614 51.7949C304.204 51.4799 304.814 51.1799 305.424 50.8999L305.634 51.3549C304.999 51.6399 304.414 51.9399 303.834 52.2449L303.849 52.2349ZM307.464 50.5749L307.279 50.1049C307.909 49.8599 308.544 49.6049 309.174 49.4199L309.334 49.9199C308.699 50.1099 308.069 50.3399 307.449 50.5849L307.464 50.5749Z" fill="#263238"/>
<path d="M311.32 49.3101L311.195 48.8101C311.815 48.6501 312.195 48.5801 312.195 48.5801L312.285 49.0801C312.285 49.0801 311.925 49.1551 311.32 49.3101Z" fill="#263238"/>
<path d="M320.159 46.0801C318.884 42.1301 310.344 43.5501 312.009 48.7151C313.674 53.8801 321.434 50.0351 320.159 46.0801Z" fill="#263238"/>
<path d="M307.365 44.4998C307.43 42.7648 309.84 41.4298 313.25 42.0448C316.66 42.6598 319.865 44.9598 319.865 44.9598C319.865 44.9598 316.5 46.9998 313.055 47.3748C309.61 47.7498 307.3 46.2298 307.365 44.4998Z" fill="#EBEBEB"/>
<path d="M319.866 44.9496C318.096 44.9496 316.331 44.8996 314.566 44.8446C312.801 44.7896 311.031 44.6996 309.266 44.5596C311.036 44.5596 312.806 44.6046 314.571 44.6596C316.336 44.7146 318.106 44.8046 319.866 44.9496Z" fill="#263238"/>
<path d="M310.789 42.9551C311.794 43.4358 312.741 44.0278 313.614 44.7201C313.111 44.4841 312.624 44.2169 312.154 43.9201C311.681 43.6253 311.225 43.3031 310.789 42.9551Z" fill="#263238"/>
<path d="M315.425 44.7852C314.521 45.5182 313.54 46.1519 312.5 46.6752C313.409 45.9412 314.395 45.3075 315.44 44.7852H315.425Z" fill="#263238"/>
<path d="M315.939 43.8096C316.444 44.0518 316.886 44.4078 317.229 44.8496C316.977 44.7305 316.74 44.5811 316.524 44.4046C316.307 44.2292 316.111 44.0296 315.939 43.8096Z" fill="#263238"/>
<path d="M310.614 54.7748C311.679 56.1448 314.414 55.8148 316.819 53.3248C319.224 50.8348 320.499 47.0898 320.499 47.0898C320.499 47.0898 316.559 47.3898 313.554 49.0898C310.549 50.7898 309.544 53.3998 310.614 54.7748Z" fill="#EBEBEB"/>
<path d="M320.501 47.0898C319.061 48.0898 317.661 49.1998 316.256 50.2748C314.851 51.3498 313.476 52.4598 312.131 53.6048C313.571 52.6048 314.971 51.4998 316.371 50.4248C317.771 49.3498 319.136 48.2398 320.501 47.0898Z" fill="#263238"/>
<path d="M314.289 53.9999C314.556 53.5142 314.795 53.0134 315.004 52.4999C315.217 51.985 315.397 51.4573 315.544 50.9199C315.276 51.4052 315.037 51.9061 314.829 52.4199C314.618 52.9356 314.438 53.4632 314.289 53.9999Z" fill="#263238"/>
<path d="M317 49.8195C315.83 49.7569 314.657 49.8189 313.5 50.0045C314.083 50.0395 314.667 50.0395 315.25 50.0045C315.836 49.9759 316.421 49.9141 317 49.8195Z" fill="#263238"/>
<path d="M317.965 50.315C318.098 50.068 318.202 49.8062 318.275 49.535C318.349 49.2657 318.392 48.989 318.405 48.71C318.139 49.2049 317.989 49.7536 317.965 50.315Z" fill="#263238"/>
<path d="M320.161 46.08C319.878 46.1717 319.575 46.1775 319.289 46.0968C319.004 46.016 318.748 45.8523 318.556 45.6263C318.363 45.4003 318.242 45.1223 318.207 44.8274C318.173 44.5325 318.227 44.2341 318.362 43.9698C318.497 43.7055 318.708 43.4873 318.967 43.3429C319.227 43.1984 319.523 43.1342 319.819 43.1583C320.115 43.1824 320.397 43.2938 320.63 43.4783C320.862 43.6629 321.035 43.9123 321.126 44.195C321.247 44.5729 321.213 44.9835 321.032 45.3369C320.852 45.6902 320.538 45.9574 320.161 46.08Z" fill="#455A64"/>
<path d="M321.081 48.935C320.799 49.0263 320.496 49.0319 320.21 48.951C319.925 48.8702 319.67 48.7066 319.478 48.4808C319.285 48.2551 319.164 47.9773 319.129 47.6827C319.095 47.3881 319.148 47.0899 319.283 46.8257C319.418 46.5615 319.628 46.3433 319.887 46.1985C320.146 46.0538 320.442 45.989 320.738 46.0125C321.034 46.036 321.316 46.1466 321.548 46.3304C321.781 46.5141 321.954 46.7628 322.046 47.045C322.107 47.2324 322.13 47.43 322.114 47.6265C322.099 47.8229 322.045 48.0144 321.955 48.1899C321.865 48.3654 321.742 48.5216 321.592 48.6494C321.442 48.7773 321.268 48.8743 321.081 48.935Z" fill="#455A64"/>
<path d="M157.155 47.6604C156.915 49.9569 156.042 52.1418 154.633 53.971C153.224 55.8003 151.334 57.202 149.175 58.0198C147.015 58.8376 144.671 59.0393 142.404 58.6024C140.137 58.1654 138.035 57.1071 136.335 55.5454L130.1 56.4604L133.22 51.0704C132.506 49.3166 132.202 47.4232 132.329 45.5341C132.457 43.6451 133.014 41.81 133.957 40.1682C134.9 38.5265 136.205 37.1212 137.773 36.0593C139.34 34.9974 141.129 34.3067 143.004 34.0396C144.878 33.7725 146.789 33.9362 148.591 34.5181C150.392 35.1 152.038 36.0849 153.402 37.3979C154.766 38.711 155.813 40.3176 156.463 42.0958C157.113 43.874 157.35 45.7771 157.155 47.6604Z" fill="white"/>
<path d="M157.154 47.6602C156.92 49.9556 156.054 52.1413 154.654 53.9752C153.97 54.9027 153.145 55.7176 152.209 56.3902C151.294 57.0881 150.284 57.652 149.209 58.0652C148.134 58.4886 147.005 58.7579 145.854 58.8652C145.279 58.9168 144.701 58.9285 144.124 58.9002C143.545 58.8853 142.969 58.8251 142.399 58.7202C140.101 58.2974 137.967 57.243 136.234 55.6752L136.379 55.7202L130.154 56.6752L129.699 56.7452L129.929 56.3452L133.029 50.9452V51.1602C132.298 49.374 131.987 47.4435 132.12 45.518C132.254 43.5924 132.828 41.7234 133.799 40.0552C134.769 38.3923 136.102 36.9702 137.699 35.8952C139.294 34.8345 141.107 34.1485 143.005 33.8887C144.902 33.629 146.833 33.8021 148.654 34.3952C150.456 35.0081 152.097 36.016 153.459 37.3452C154.818 38.6711 155.857 40.289 156.497 42.0763C157.137 43.8635 157.362 45.7732 157.154 47.6602ZM157.154 47.6602C157.356 45.7824 157.124 43.8834 156.476 42.1096C155.827 40.3358 154.78 38.7348 153.414 37.4301C152.049 36.1255 150.401 35.1521 148.6 34.5851C146.799 34.0182 144.891 33.8728 143.024 34.1602C141.176 34.4337 139.416 35.1283 137.879 36.1902C136.356 37.2605 135.083 38.6492 134.149 40.2602C133.23 41.8748 132.688 43.6764 132.564 45.5302C132.442 47.3965 132.743 49.2663 133.444 51.0002L133.489 51.1102L133.429 51.2152L130.289 56.5952L130.069 56.2652L136.309 55.3902H136.394L136.454 55.4452C138.122 56.9977 140.189 58.0555 142.424 58.5002C142.981 58.6137 143.546 58.6822 144.114 58.7052C144.682 58.7452 145.252 58.7452 145.819 58.7052C146.958 58.6135 148.078 58.3662 149.149 57.9702C150.223 57.5793 151.234 57.0336 152.149 56.3502C153.081 55.683 153.907 54.879 154.599 53.9652C156.017 52.1402 156.902 49.9577 157.154 47.6602Z" fill="#263238"/>
<path d="M138.67 52.1748C138.66 52.0093 138.685 51.8435 138.742 51.6879C138.799 51.5322 138.888 51.3899 139.002 51.2699C139.116 51.1499 139.254 51.0547 139.407 50.9901C139.56 50.9256 139.724 50.8932 139.89 50.8948C140.229 50.8948 140.555 51.0297 140.795 51.2697C141.035 51.5098 141.17 51.8353 141.17 52.1748C141.17 52.5143 141.035 52.8399 140.795 53.0799C140.555 53.3199 140.229 53.4548 139.89 53.4548C139.724 53.4565 139.56 53.424 139.407 53.3595C139.254 53.2949 139.116 53.1997 139.002 53.0797C138.888 52.9597 138.799 52.8174 138.742 52.6617C138.685 52.5061 138.66 52.3403 138.67 52.1748ZM139.17 49.2198L138.88 39.2998H140.88L140.59 49.2198H139.17Z" fill="#63D1C5"/>
<path d="M143.424 52.1748C143.414 52.0097 143.439 51.8444 143.496 51.6891C143.552 51.5337 143.64 51.3917 143.754 51.2718C143.868 51.1518 144.005 51.0565 144.158 50.9916C144.31 50.9268 144.474 50.8938 144.639 50.8948C144.978 50.8948 145.304 51.0297 145.544 51.2697C145.784 51.5098 145.919 51.8353 145.919 52.1748C145.919 52.5143 145.784 52.8399 145.544 53.0799C145.304 53.3199 144.978 53.4548 144.639 53.4548C144.474 53.4558 144.31 53.4228 144.158 53.358C144.005 53.2931 143.868 53.1978 143.754 53.0779C143.64 52.9579 143.552 52.8159 143.496 52.6606C143.439 52.5052 143.414 52.3399 143.424 52.1748ZM143.924 49.2198L143.649 39.2998H145.649L145.359 49.2198H143.924Z" fill="#63D1C5"/>
<path d="M148.174 52.1748C148.164 52.0093 148.189 51.8435 148.246 51.6879C148.303 51.5322 148.392 51.3899 148.506 51.2699C148.62 51.1499 148.758 51.0547 148.911 50.9901C149.064 50.9256 149.228 50.8932 149.394 50.8948C149.733 50.8948 150.059 51.0297 150.299 51.2697C150.539 51.5098 150.674 51.8353 150.674 52.1748C150.674 52.5143 150.539 52.8399 150.299 53.0799C150.059 53.3199 149.733 53.4548 149.394 53.4548C149.228 53.4565 149.064 53.424 148.911 53.3595C148.758 53.2949 148.62 53.1997 148.506 53.0797C148.392 52.9597 148.303 52.8174 148.246 52.6617C148.189 52.5061 148.164 52.3403 148.174 52.1748ZM148.674 49.2198L148.384 39.2998H150.384L150.099 49.2198H148.674Z" fill="#63D1C5"/>
<path opacity="0.7" d="M132.128 270H130.076L123.902 260.658V270H121.85V257.472H123.902L130.076 266.796V257.472H132.128V270ZM139.125 270.162C138.189 270.162 137.343 269.952 136.587 269.532C135.831 269.1 135.237 268.5 134.805 267.732C134.373 266.952 134.157 266.052 134.157 265.032C134.157 264.024 134.379 263.13 134.823 262.35C135.267 261.57 135.873 260.97 136.641 260.55C137.409 260.13 138.267 259.92 139.215 259.92C140.163 259.92 141.021 260.13 141.789 260.55C142.557 260.97 143.163 261.57 143.607 262.35C144.051 263.13 144.273 264.024 144.273 265.032C144.273 266.04 144.045 266.934 143.589 267.714C143.133 268.494 142.509 269.1 141.717 269.532C140.937 269.952 140.073 270.162 139.125 270.162ZM139.125 268.38C139.653 268.38 140.145 268.254 140.601 268.002C141.069 267.75 141.447 267.372 141.735 266.868C142.023 266.364 142.167 265.752 142.167 265.032C142.167 264.312 142.029 263.706 141.753 263.214C141.477 262.71 141.111 262.332 140.655 262.08C140.199 261.828 139.707 261.702 139.179 261.702C138.651 261.702 138.159 261.828 137.703 262.08C137.259 262.332 136.905 262.71 136.641 263.214C136.377 263.706 136.245 264.312 136.245 265.032C136.245 266.1 136.515 266.928 137.055 267.516C137.607 268.092 138.297 268.38 139.125 268.38ZM155.063 257.49C156.395 257.49 157.559 257.748 158.555 258.264C159.563 258.768 160.337 259.5 160.877 260.46C161.429 261.408 161.705 262.518 161.705 263.79C161.705 265.062 161.429 266.166 160.877 267.102C160.337 268.038 159.563 268.758 158.555 269.262C157.559 269.754 156.395 270 155.063 270H150.977V257.49H155.063ZM155.063 268.326C156.527 268.326 157.649 267.93 158.429 267.138C159.209 266.346 159.599 265.23 159.599 263.79C159.599 262.338 159.209 261.204 158.429 260.388C157.649 259.572 156.527 259.164 155.063 259.164H153.029V268.326H155.063ZM163.055 264.996C163.055 264 163.259 263.118 163.667 262.35C164.087 261.582 164.651 260.988 165.359 260.568C166.079 260.136 166.871 259.92 167.735 259.92C168.515 259.92 169.193 260.076 169.769 260.388C170.357 260.688 170.825 261.066 171.173 261.522V260.082H173.243V270H171.173V268.524C170.825 268.992 170.351 269.382 169.751 269.694C169.151 270.006 168.467 270.162 167.699 270.162C166.847 270.162 166.067 269.946 165.359 269.514C164.651 269.07 164.087 268.458 163.667 267.678C163.259 266.886 163.055 265.992 163.055 264.996ZM171.173 265.032C171.173 264.348 171.029 263.754 170.741 263.25C170.465 262.746 170.099 262.362 169.643 262.098C169.187 261.834 168.695 261.702 168.167 261.702C167.639 261.702 167.147 261.834 166.691 262.098C166.235 262.35 165.863 262.728 165.575 263.232C165.299 263.724 165.161 264.312 165.161 264.996C165.161 265.68 165.299 266.28 165.575 266.796C165.863 267.312 166.235 267.708 166.691 267.984C167.159 268.248 167.651 268.38 168.167 268.38C168.695 268.38 169.187 268.248 169.643 267.984C170.099 267.72 170.465 267.336 170.741 266.832C171.029 266.316 171.173 265.716 171.173 265.032ZM178.332 261.756V267.246C178.332 267.618 178.416 267.888 178.584 268.056C178.764 268.212 179.064 268.29 179.484 268.29H180.744V270H179.124C178.2 270 177.492 269.784 177 269.352C176.508 268.92 176.262 268.218 176.262 267.246V261.756H175.092V260.082H176.262V257.616H178.332V260.082H180.744V261.756H178.332ZM181.951 264.996C181.951 264 182.155 263.118 182.563 262.35C182.983 261.582 183.547 260.988 184.255 260.568C184.975 260.136 185.767 259.92 186.631 259.92C187.411 259.92 188.089 260.076 188.665 260.388C189.253 260.688 189.721 261.066 190.069 261.522V260.082H192.139V270H190.069V268.524C189.721 268.992 189.247 269.382 188.647 269.694C188.047 270.006 187.363 270.162 186.595 270.162C185.743 270.162 184.963 269.946 184.255 269.514C183.547 269.07 182.983 268.458 182.563 267.678C182.155 266.886 181.951 265.992 181.951 264.996ZM190.069 265.032C190.069 264.348 189.925 263.754 189.637 263.25C189.361 262.746 188.995 262.362 188.539 262.098C188.083 261.834 187.591 261.702 187.063 261.702C186.535 261.702 186.043 261.834 185.587 262.098C185.131 262.35 184.759 262.728 184.471 263.232C184.195 263.724 184.057 264.312 184.057 264.996C184.057 265.68 184.195 266.28 184.471 266.796C184.759 267.312 185.131 267.708 185.587 267.984C186.055 268.248 186.547 268.38 187.063 268.38C187.591 268.38 188.083 268.248 188.539 267.984C188.995 267.72 189.361 267.336 189.637 266.832C189.925 266.316 190.069 265.716 190.069 265.032ZM206.872 257.49V259.164H201.562V262.854H205.702V264.528H201.562V270H199.51V257.49H206.872ZM213.076 270.162C212.14 270.162 211.294 269.952 210.538 269.532C209.782 269.1 209.188 268.5 208.756 267.732C208.324 266.952 208.108 266.052 208.108 265.032C208.108 264.024 208.33 263.13 208.774 262.35C209.218 261.57 209.824 260.97 210.592 260.55C211.36 260.13 212.218 259.92 213.166 259.92C214.114 259.92 214.972 260.13 215.74 260.55C216.508 260.97 217.114 261.57 217.558 262.35C218.002 263.13 218.224 264.024 218.224 265.032C218.224 266.04 217.996 266.934 217.54 267.714C217.084 268.494 216.46 269.1 215.668 269.532C214.888 269.952 214.024 270.162 213.076 270.162ZM213.076 268.38C213.604 268.38 214.096 268.254 214.552 268.002C215.02 267.75 215.398 267.372 215.686 266.868C215.974 266.364 216.118 265.752 216.118 265.032C216.118 264.312 215.98 263.706 215.704 263.214C215.428 262.71 215.062 262.332 214.606 262.08C214.15 261.828 213.658 261.702 213.13 261.702C212.602 261.702 212.11 261.828 211.654 262.08C211.21 262.332 210.856 262.71 210.592 263.214C210.328 263.706 210.196 264.312 210.196 265.032C210.196 266.1 210.466 266.928 211.006 267.516C211.558 268.092 212.248 268.38 213.076 268.38ZM229.234 260.082V270H227.182V268.83C226.858 269.238 226.432 269.562 225.904 269.802C225.388 270.03 224.836 270.144 224.248 270.144C223.468 270.144 222.766 269.982 222.142 269.658C221.53 269.334 221.044 268.854 220.684 268.218C220.336 267.582 220.162 266.814 220.162 265.914V260.082H222.196V265.608C222.196 266.496 222.418 267.18 222.862 267.66C223.306 268.128 223.912 268.362 224.68 268.362C225.448 268.362 226.054 268.128 226.498 267.66C226.954 267.18 227.182 266.496 227.182 265.608V260.082H229.234ZM236.946 259.92C237.726 259.92 238.422 260.082 239.034 260.406C239.658 260.73 240.144 261.21 240.492 261.846C240.84 262.482 241.014 263.25 241.014 264.15V270H238.98V264.456C238.98 263.568 238.758 262.89 238.314 262.422C237.87 261.942 237.264 261.702 236.496 261.702C235.728 261.702 235.116 261.942 234.66 262.422C234.216 262.89 233.994 263.568 233.994 264.456V270H231.942V260.082H233.994V261.216C234.33 260.808 234.756 260.49 235.272 260.262C235.8 260.034 236.358 259.92 236.946 259.92ZM242.947 264.996C242.947 264 243.151 263.118 243.559 262.35C243.979 261.582 244.543 260.988 245.251 260.568C245.971 260.136 246.769 259.92 247.645 259.92C248.293 259.92 248.929 260.064 249.553 260.352C250.189 260.628 250.693 261 251.065 261.468V256.68H253.135V270H251.065V268.506C250.729 268.986 250.261 269.382 249.661 269.694C249.073 270.006 248.395 270.162 247.627 270.162C246.763 270.162 245.971 269.946 245.251 269.514C244.543 269.07 243.979 268.458 243.559 267.678C243.151 266.886 242.947 265.992 242.947 264.996ZM251.065 265.032C251.065 264.348 250.921 263.754 250.633 263.25C250.357 262.746 249.991 262.362 249.535 262.098C249.079 261.834 248.587 261.702 248.059 261.702C247.531 261.702 247.039 261.834 246.583 262.098C246.127 262.35 245.755 262.728 245.467 263.232C245.191 263.724 245.053 264.312 245.053 264.996C245.053 265.68 245.191 266.28 245.467 266.796C245.755 267.312 246.127 267.708 246.583 267.984C247.051 268.248 247.543 268.38 248.059 268.38C248.587 268.38 249.079 268.248 249.535 267.984C249.991 267.72 250.357 267.336 250.633 266.832C250.921 266.316 251.065 265.716 251.065 265.032Z" fill="#333333"/>
</svg>
